<svg xmlns="http://www.w3.org/2000/svg" xmlns:xlink="http://www.w3.org/1999/xlink" width="66.098" height="42.066" viewBox="0 0 66.098 42.066">
  <defs>
    <linearGradient id="linear-gradient" x1="0.5" y1="1" x2="0.5" gradientUnits="objectBoundingBox">
      <stop offset="0" stop-color="#04185b"/>
      <stop offset="1" stop-color="#18a5d4"/>
    </linearGradient>
    <linearGradient id="linear-gradient-2" y1="0.5" x2="1" y2="0.5" gradientUnits="objectBoundingBox">
      <stop offset="0" stop-color="#19b0dc"/>
      <stop offset="1" stop-color="#020b50"/>
    </linearGradient>
    <clipPath id="clip-path">
      <path id="Path_39" data-name="Path 39" d="M5.45,14.511.49,9.552a1.673,1.673,0,0,1,0-2.367l.076-.074a1.673,1.673,0,0,1,2.367,0l3.76,3.755L17.067.49a1.673,1.673,0,0,1,2.367,0l.076.075a1.673,1.673,0,0,1,0,2.367L7.93,14.511A1.673,1.673,0,0,1,6.7,15H6.633a1.668,1.668,0,0,1-1.184-.489Z" transform="translate(0 0)" fill="#fff"/>
    </clipPath>
  </defs>
  <g id="CheckAadhaarValidityIcon" transform="translate(-1299.993 -766.771)">
    <path id="Path_76" data-name="Path 76" d="M25.48,53.049a4.768,4.768,0,0,0-.082-6.6,4.525,4.525,0,0,0-6.457,0,4.768,4.768,0,0,0-.082,6.6,7.183,7.183,0,0,0-3.69,6.3,1.125,1.125,0,1,0,2.25,0,4.75,4.75,0,1,1,9.5,0,1.125,1.125,0,1,0,2.249,0,7.183,7.183,0,0,0-3.689-6.3ZM19.828,49.8a2.345,2.345,0,1,1,2.345,2.4,2.371,2.371,0,0,1-2.345-2.4Z" transform="translate(1297.514 734.768)" fill="url(#linear-gradient)"/>
    <g id="Group_45" data-name="Group 45" transform="translate(692.684 443.366)">
      <line id="Line_9" data-name="Line 9" x2="8.883" transform="translate(637.5 338.5)" fill="none" stroke="#2175af" stroke-linecap="round" stroke-width="1"/>
      <line id="Line_10" data-name="Line 10" x2="8.883" transform="translate(637.5 342.5)" fill="none" stroke="#2175af" stroke-linecap="round" stroke-width="1"/>
      <line id="Line_11" data-name="Line 11" x2="8.883" transform="translate(637.5 350.5)" fill="none" stroke="#2175af" stroke-linecap="round" stroke-width="1"/>
      <line id="Line_12" data-name="Line 12" x2="8.883" transform="translate(637.5 346.5)" fill="none" stroke="#2175af" stroke-linecap="round" stroke-width="1"/>
    </g>
    <path id="Path_77" data-name="Path 77" d="M1867.88,1256.07V1250a3.847,3.847,0,0,0-4.188-4h-33.506a3.95,3.95,0,0,0-4.188,4v16a3.9,3.9,0,0,0,4.188,4H1858" transform="translate(-517.316 -470.134)" fill="none" stroke="#2072a0" stroke-linecap="round" stroke-width="2"/>
    <rect id="Rectangle_25" data-name="Rectangle 25" width="26" height="31" rx="3" transform="translate(1340.068 777.818)" fill="url(#linear-gradient-2)"/>
    <path id="Path_69" data-name="Path 69" d="M772,531.24s1.033-6.773-6.434-7.04-49.534-.038-52.533,0c-2.3.2-5.353.884-5.067,7.04-.133,6.16.023,26.245.023,26.245s-.756,6.435,5.067,6.533H742.99" transform="translate(593.087 243.818)" fill="none" stroke="#020b50" stroke-linecap="round" stroke-width="2"/>
    <g id="Group_40" data-name="Group 40" transform="translate(581.251 488.748)">
      <g id="Group_25" data-name="Group 25" transform="translate(761.317 297.069)" clip-path="url(#clip-path)">
        <rect id="Rectangle_10" data-name="Rectangle 10" width="21.584" height="16.404" transform="translate(-0.841 -0.562)" fill="#fff"/>
      </g>
    </g>
  </g>
</svg>
