<svg xmlns="http://www.w3.org/2000/svg" xmlns:xlink="http://www.w3.org/1999/xlink" width="66.098" height="42.066" viewBox="0 0 66.098 42.066">
  <defs>
    <linearGradient id="linear-gradient" x1="0.5" y1="1" x2="0.5" gradientUnits="objectBoundingBox">
      <stop offset="0" stop-color="#04185b"/>
      <stop offset="1" stop-color="#18a5d4"/>
    </linearGradient>
    <linearGradient id="linear-gradient-2" y1="0.5" x2="1" y2="0.5" gradientUnits="objectBoundingBox">
      <stop offset="0" stop-color="#19b0dc"/>
      <stop offset="1" stop-color="#020b50"/>
    </linearGradient>
  </defs>
  <g id="address-update" transform="translate(-1300.925 -543.417)">
    <g id="Group_30" data-name="Group 30" transform="translate(379 -235.488)">
      <path id="Path_43" data-name="Path 43" d="M25.48,53.049a4.768,4.768,0,0,0-.082-6.6,4.525,4.525,0,0,0-6.457,0,4.768,4.768,0,0,0-.082,6.6,7.183,7.183,0,0,0-3.69,6.3,1.125,1.125,0,1,0,2.25,0,4.75,4.75,0,1,1,9.5,0,1.125,1.125,0,1,0,2.249,0,7.183,7.183,0,0,0-3.689-6.3ZM19.828,49.8a2.345,2.345,0,1,1,2.345,2.4,2.371,2.371,0,0,1-2.345-2.4Z" transform="translate(918.83 746.902)" fill="url(#linear-gradient)"/>
      <g id="Group_28" data-name="Group 28" transform="translate(314 455.5)">
        <line id="Line_9" data-name="Line 9" x2="8.883" transform="translate(637.5 338.5)" fill="none" stroke="#2175af" stroke-linecap="round" stroke-width="1"/>
        <line id="Line_10" data-name="Line 10" x2="8.883" transform="translate(637.5 342.5)" fill="none" stroke="#2175af" stroke-linecap="round" stroke-width="1"/>
        <line id="Line_11" data-name="Line 11" x2="8.883" transform="translate(637.5 350.5)" fill="none" stroke="#2175af" stroke-linecap="round" stroke-width="1"/>
        <line id="Line_12" data-name="Line 12" x2="8.883" transform="translate(637.5 346.5)" fill="none" stroke="#2175af" stroke-linecap="round" stroke-width="1"/>
      </g>
      <path id="Path_44" data-name="Path 44" d="M1867.88,1256.07V1250a3.847,3.847,0,0,0-4.188-4h-33.506a3.95,3.95,0,0,0-4.188,4v16a3.9,3.9,0,0,0,4.188,4H1858" transform="translate(-896 -458)" fill="none" stroke="#2072a0" stroke-linecap="round" stroke-width="2"/>
    </g>
    <rect id="Rectangle_3" data-name="Rectangle 3" width="26" height="31" rx="3" transform="translate(1341 554.464)" fill="url(#linear-gradient-2)"/>
    <path id="Path_4" data-name="Path 4" d="M772,531.24s1.033-6.773-6.434-7.04-49.534-.038-52.533,0c-2.3.2-5.353.884-5.067,7.04-.133,6.16.023,26.245.023,26.245s-.756,6.435,5.067,6.533H742.99" transform="translate(594.019 20.464)" fill="none" stroke="#020b50" stroke-linecap="round" stroke-width="2"/>
    <path id="edit_location_24dp_1F1F1F_FILL0_wght400_GRAD0_opsz24" d="M164.777-867.793h1.539l4.14-4.166-1.513-1.513-4.166,4.14Zm6.449-4.936.743-.743a.393.393,0,0,0,.133-.279.393.393,0,0,0-.133-.279l-.955-.955a.393.393,0,0,0-.279-.133.393.393,0,0,0-.279.133l-.743.743Zm-2.733,11.146a29.212,29.212,0,0,0,4.8-5.4,8.242,8.242,0,0,0,1.566-4.312,6.413,6.413,0,0,0-1.844-4.737,6.152,6.152,0,0,0-4.525-1.844,6.152,6.152,0,0,0-4.525,1.844,6.413,6.413,0,0,0-1.844,4.737,8.241,8.241,0,0,0,1.566,4.312A29.211,29.211,0,0,0,168.492-861.583Zm0,2.813a35.285,35.285,0,0,1-6.382-6.754A10.5,10.5,0,0,1,160-871.3a8.209,8.209,0,0,1,2.561-6.343A8.483,8.483,0,0,1,168.492-880a8.483,8.483,0,0,1,5.931,2.362,8.209,8.209,0,0,1,2.561,6.343,10.5,10.5,0,0,1-2.11,5.772A35.286,35.286,0,0,1,168.492-858.77ZM168.492-871.508Z" transform="translate(1185.508 1439.349)" fill="#fff"/>
  </g>
</svg>
