<svg width="165" height="48" viewBox="0 0 165 48" fill="none" xmlns="http://www.w3.org/2000/svg">
<path d="M163.781 42.0914C163.781 44.627 161.684 46.6808 159.091 46.6808H5.61109C3.01903 46.6808 0.915039 44.627 0.915039 42.0914V5.49281C0.915039 2.95848 3.01903 0.897461 5.61109 0.897461H159.09C161.684 0.897461 163.78 2.95848 163.78 5.49281L163.781 42.0914Z" fill="#1B1B34"/>
<path d="M158.596 0.953168C161.42 0.953168 163.718 3.19383 163.718 5.94745V41.6315C163.718 44.3851 161.42 46.6258 158.596 46.6258H6.09984C3.27561 46.6258 0.977499 44.3851 0.977499 41.6315V5.94745C0.977499 3.19383 3.27561 0.953168 6.09984 0.953168H158.596ZM158.596 0.000109243H6.09984C2.74645 0.000109243 0 2.6779 0 5.94745V41.6315C0 44.9011 2.74645 47.5789 6.09984 47.5789H158.596C161.949 47.5789 164.696 44.9011 164.696 41.6315V5.94745C164.696 2.6779 161.949 0.000109243 158.596 0.000109243Z" fill="#A6A6A6"/>
<path d="M36.7549 23.5313C36.7196 19.6977 39.9744 17.8326 40.1233 17.7457C38.2799 15.1253 35.4227 14.7673 34.4187 14.7388C32.019 14.4925 29.6913 16.1388 28.4689 16.1388C27.2221 16.1388 25.3397 14.7626 23.3109 14.803C20.7002 14.8422 18.2578 16.316 16.9183 18.6045C14.1538 23.2708 16.2156 30.1281 18.8641 33.8999C20.189 35.7472 21.7371 37.8097 23.7635 37.7371C25.746 37.6574 26.4865 36.5048 28.8788 36.5048C31.2492 36.5048 31.9446 37.7371 34.0112 37.6907C36.1389 37.6574 37.4784 35.8352 38.7569 33.9713C40.288 31.854 40.9028 29.7689 40.9272 29.6618C40.8772 29.6452 36.7952 28.1262 36.7549 23.5313Z" fill="white"/>
<path d="M32.851 12.2575C33.9173 10.9574 34.6468 9.18871 34.4443 7.3938C32.9011 7.46041 30.9711 8.43458 29.8597 9.70613C28.8764 10.8266 27.998 12.6631 28.2249 14.3903C29.9585 14.5163 31.7384 13.5374 32.851 12.2575Z" fill="white"/>
<path d="M65.4466 37.4728H62.676L61.1584 32.8231H55.8832L54.4376 37.4728H51.7402L56.9666 21.6433H60.1946L65.4466 37.4728ZM60.7009 30.8724L59.3284 26.739C59.1833 26.3167 58.9112 25.3223 58.5098 23.757H58.461C58.3012 24.4302 58.0438 25.4246 57.69 26.739L56.3419 30.8724H60.7009Z" fill="white"/>
<path d="M78.887 31.6255C78.887 33.5667 78.349 35.1011 77.273 36.2276C76.3092 37.2303 75.1124 37.731 73.6838 37.731C72.1418 37.731 71.0341 37.191 70.3594 36.111H70.3106V42.1238H67.7097V29.8163C67.7097 28.5959 67.6767 27.3434 67.6133 26.0588H69.9007L70.0459 27.868H70.0947C70.9621 26.5048 72.2784 25.8245 74.045 25.8245C75.426 25.8245 76.5788 26.3562 77.5011 27.4207C78.4259 28.4865 78.887 29.8877 78.887 31.6255ZM76.2372 31.7183C76.2372 30.6073 75.981 29.6914 75.4662 28.9706C74.9038 28.2189 74.1486 27.843 73.202 27.843C72.5602 27.843 71.9771 28.0523 71.4562 28.4651C70.934 28.8814 70.5924 29.425 70.4326 30.0982C70.3521 30.4122 70.3118 30.6692 70.3118 30.8714V32.7745C70.3118 33.6048 70.5729 34.3054 71.0951 34.8775C71.6172 35.4496 72.2955 35.7351 73.13 35.7351C74.1096 35.7351 74.8721 35.3664 75.4174 34.6313C75.964 33.895 76.2372 32.9244 76.2372 31.7183Z" fill="white"/>
<path d="M92.3516 31.6255C92.3516 33.5667 91.8136 35.1011 90.7364 36.2276C89.7738 37.2303 88.577 37.731 87.1484 37.731C85.6064 37.731 84.4987 37.191 83.8252 36.111H83.7764V42.1238H81.1755V29.8163C81.1755 28.5959 81.1425 27.3434 81.0791 26.0588H83.3665L83.5117 27.868H83.5605C84.4267 26.5048 85.743 25.8245 87.5108 25.8245C88.8906 25.8245 90.0434 26.3562 90.9682 27.4207C91.8892 28.4865 92.3516 29.8877 92.3516 31.6255ZM89.7018 31.7183C89.7018 30.6073 89.4444 29.6914 88.9296 28.9706C88.3672 28.2189 87.6145 27.843 86.6666 27.843C86.0236 27.843 85.4417 28.0523 84.9196 28.4651C84.3974 28.8814 84.057 29.425 83.8972 30.0982C83.8179 30.4122 83.7764 30.6692 83.7764 30.8714V32.7745C83.7764 33.6048 84.0375 34.3054 84.5572 34.8775C85.0794 35.4485 85.7577 35.7351 86.5946 35.7351C87.5742 35.7351 88.3367 35.3664 88.882 34.6313C89.4286 33.895 89.7018 32.9244 89.7018 31.7183Z" fill="white"/>
<path d="M107.407 33.0337C107.407 34.3802 106.928 35.4757 105.965 36.3214C104.907 37.2456 103.435 37.7071 101.543 37.7071C99.7956 37.7071 98.3951 37.3788 97.335 36.721L97.9376 34.6073C99.0795 35.2806 100.332 35.6184 101.698 35.6184C102.677 35.6184 103.44 35.4019 103.987 34.9713C104.533 34.5407 104.805 33.9627 104.805 33.2418C104.805 32.5995 104.58 32.0583 104.13 31.6194C103.682 31.1805 102.935 30.7725 101.89 30.3954C99.0478 29.3618 97.6278 27.8476 97.6278 25.8564C97.6278 24.5551 98.1255 23.4882 99.1222 22.6579C100.115 21.8265 101.44 21.4114 103.097 21.4114C104.574 21.4114 105.802 21.6624 106.781 22.1631L106.131 24.2304C105.216 23.7451 104.181 23.5025 103.024 23.5025C102.109 23.5025 101.394 23.7225 100.881 24.1602C100.448 24.5516 100.231 25.0286 100.231 25.5935C100.231 26.2192 100.479 26.7366 100.977 27.1434C101.41 27.5193 102.197 27.9261 103.338 28.365C104.735 28.9134 105.761 29.5545 106.421 30.2896C107.079 31.0223 107.407 31.9394 107.407 33.0337Z" fill="white"/>
<path d="M116.005 27.9615H113.139V33.5033C113.139 34.9128 113.644 35.6169 114.656 35.6169C115.121 35.6169 115.506 35.5777 115.811 35.4992L115.883 37.4249C115.371 37.6117 114.696 37.7057 113.861 37.7057C112.834 37.7057 112.031 37.4 111.451 36.7898C110.874 36.1784 110.584 35.1531 110.584 33.7126V27.9591H108.876V26.056H110.584V23.9661L113.139 23.2144V26.056H116.005V27.9615Z" fill="white"/>
<path d="M128.941 31.6719C128.941 33.4264 128.426 34.8668 127.399 35.9933C126.322 37.153 124.892 37.7311 123.11 37.7311C121.392 37.7311 120.024 37.1756 119.004 36.0646C117.985 34.9537 117.475 33.5513 117.475 31.861C117.475 30.0923 117.999 28.6435 119.052 27.5171C120.102 26.3895 121.52 25.8257 123.302 25.8257C125.02 25.8257 126.402 26.3812 127.445 27.4933C128.443 28.5722 128.941 29.965 128.941 31.6719ZM126.243 31.754C126.243 30.7013 126.012 29.7985 125.545 29.0456C124.999 28.1344 124.22 27.6801 123.21 27.6801C122.164 27.6801 121.37 28.1356 120.825 29.0456C120.357 29.7997 120.127 30.7168 120.127 31.8016C120.127 32.8543 120.357 33.7571 120.825 34.5088C121.387 35.4199 122.173 35.8743 123.186 35.8743C124.18 35.8743 124.959 35.4104 125.522 34.485C126.001 33.7178 126.243 32.8055 126.243 31.754Z" fill="white"/>
<path d="M137.396 28.289C137.139 28.2427 136.864 28.2189 136.576 28.2189C135.661 28.2189 134.954 28.5555 134.456 29.2299C134.023 29.8246 133.806 30.5764 133.806 31.484V37.4729H131.206L131.23 29.6534C131.23 28.3378 131.197 27.14 131.133 26.06H133.398L133.493 28.2438H133.565C133.84 27.4933 134.273 26.889 134.866 26.4358C135.445 26.0279 136.071 25.8245 136.746 25.8245C136.986 25.8245 137.203 25.8411 137.396 25.8709V28.289Z" fill="white"/>
<path d="M149.028 31.2255C149.028 31.6799 148.997 32.0629 148.933 32.3757H141.13C141.16 33.5034 141.537 34.3657 142.262 34.9605C142.92 35.4921 143.77 35.7586 144.814 35.7586C145.969 35.7586 147.023 35.579 147.971 35.2186L148.379 36.979C147.271 37.45 145.963 37.6843 144.454 37.6843C142.639 37.6843 141.214 37.1633 140.177 36.1226C139.143 35.0818 138.624 33.6842 138.624 31.9309C138.624 30.2097 139.106 28.7764 140.071 27.6333C141.081 26.4129 142.446 25.8027 144.164 25.8027C145.851 25.8027 147.128 26.4129 147.996 27.6333C148.683 28.6027 149.028 29.8017 149.028 31.2255ZM146.548 30.5677C146.565 29.816 146.395 29.1666 146.043 28.6182C145.592 27.9129 144.901 27.5608 143.97 27.5608C143.12 27.5608 142.428 27.9045 141.9 28.5944C141.467 29.1428 141.209 29.8005 141.13 30.5666H146.548V30.5677Z" fill="white"/>
<path d="M59.8403 11.9054C59.8403 13.3054 59.4096 14.3592 58.5496 15.067C57.7529 15.72 56.6208 16.0471 55.1544 16.0471C54.4273 16.0471 53.8051 16.0162 53.2842 15.9543V8.30483C53.9637 8.19778 54.6957 8.14307 55.4862 8.14307C56.8831 8.14307 57.9359 8.43924 58.6459 9.0316C59.4414 9.70127 59.8403 10.6588 59.8403 11.9054ZM58.4922 11.9399C58.4922 11.0323 58.2458 10.3364 57.7529 9.85114C57.2601 9.36703 56.5403 9.12438 55.5924 9.12438C55.1898 9.12438 54.847 9.15055 54.5627 9.20526V15.0206C54.7201 15.0444 55.008 15.0551 55.4264 15.0551C56.4049 15.0551 57.16 14.7898 57.6919 14.2593C58.2238 13.7288 58.4922 12.9557 58.4922 11.9399Z" fill="white"/>
<path d="M66.9881 13.1282C66.9881 13.9906 66.7355 14.6971 66.2305 15.2514C65.701 15.8212 64.9995 16.1055 64.1236 16.1055C63.2794 16.1055 62.6072 15.8331 62.1058 15.2859C61.6056 14.7399 61.3555 14.0512 61.3555 13.221C61.3555 12.3527 61.6129 11.6402 62.1301 11.0871C62.6474 10.534 63.3428 10.2568 64.2187 10.2568C65.063 10.2568 65.7413 10.5292 66.2549 11.0752C66.7429 11.6057 66.9881 12.2908 66.9881 13.1282ZM65.662 13.1687C65.662 12.6512 65.5473 12.2076 65.3191 11.8376C65.0508 11.3904 64.6689 11.1668 64.1724 11.1668C63.6588 11.1668 63.2684 11.3904 63 11.8376C62.7706 12.2076 62.6572 12.6584 62.6572 13.1913C62.6572 13.7087 62.7719 14.1523 63 14.5223C63.2769 14.9695 63.6624 15.1931 64.1602 15.1931C64.6482 15.1931 65.0312 14.9659 65.3069 14.5104C65.5436 14.1333 65.662 13.6861 65.662 13.1687Z" fill="white"/>
<path d="M76.5716 10.3706L74.7722 15.9778H73.601L72.8556 13.5429C72.6665 12.9351 72.5128 12.3309 72.3932 11.7314H72.3701C72.259 12.3475 72.1053 12.9506 71.9077 13.5429L71.1159 15.9778H69.9313L68.2393 10.3706H69.5532L70.2034 13.0362C70.3608 13.6666 70.4901 14.2673 70.5938 14.8359H70.617C70.7121 14.3672 70.8695 13.7701 71.0915 13.0481L71.9077 10.3718H72.9496L73.7315 12.991C73.9206 13.6298 74.0744 14.2447 74.1927 14.8371H74.2281C74.3147 14.2602 74.4452 13.6452 74.6185 12.991L75.3163 10.3718H76.5716V10.3706Z" fill="white"/>
<path d="M83.2001 15.9781H81.9216V12.7665C81.9216 11.7769 81.536 11.2821 80.7626 11.2821C80.3832 11.2821 80.077 11.4177 79.8391 11.6901C79.6036 11.9624 79.4841 12.2836 79.4841 12.6511V15.9769H78.2055V11.9731C78.2055 11.4807 78.1897 10.9466 78.1592 10.3686H79.2828L79.3425 11.2452H79.3779C79.5268 10.9728 79.7488 10.748 80.0404 10.5684C80.3868 10.359 80.7748 10.2532 81.1993 10.2532C81.7361 10.2532 82.1826 10.4221 82.5376 10.7611C82.9793 11.1762 83.2001 11.7959 83.2001 12.619V15.9781Z" fill="white"/>
<path d="M86.7265 15.9778H85.4492V7.79785H86.7265V15.9778Z" fill="white"/>
<path d="M94.2527 13.1282C94.2527 13.9906 94.0002 14.6971 93.4951 15.2514C92.9656 15.8212 92.2629 16.1055 91.3882 16.1055C90.5428 16.1055 89.8706 15.8331 89.3704 15.2859C88.8702 14.7399 88.6201 14.0512 88.6201 13.221C88.6201 12.3527 88.8775 11.6402 89.3948 11.0871C89.9121 10.534 90.6074 10.2568 91.4822 10.2568C92.3276 10.2568 93.0047 10.5292 93.5195 11.0752C94.0075 11.6057 94.2527 12.2908 94.2527 13.1282ZM92.9254 13.1687C92.9254 12.6512 92.8107 12.2076 92.5826 11.8376C92.3154 11.3904 91.9323 11.1668 91.437 11.1668C90.9222 11.1668 90.5318 11.3904 90.2646 11.8376C90.0353 12.2076 89.9218 12.6584 89.9218 13.1913C89.9218 13.7087 90.0365 14.1523 90.2646 14.5223C90.5416 14.9695 90.9271 15.1931 91.4248 15.1931C91.9128 15.1931 92.2947 14.9659 92.5704 14.5104C92.8083 14.1333 92.9254 13.6861 92.9254 13.1687Z" fill="white"/>
<path d="M100.44 15.9782H99.292L99.1969 15.3323H99.1615C98.7687 15.8473 98.2087 16.1055 97.4816 16.1055C96.9387 16.1055 96.4995 15.9354 96.1689 15.5975C95.8688 15.2907 95.7188 14.9088 95.7188 14.4557C95.7188 13.7705 96.0115 13.2483 96.6008 12.8867C97.1888 12.5252 98.016 12.3479 99.081 12.3562V12.2516C99.081 11.5129 98.6833 11.1442 97.8866 11.1442C97.3193 11.1442 96.8192 11.2833 96.3873 11.5593L96.1274 10.7409C96.6618 10.4186 97.3218 10.2568 98.1001 10.2568C99.6031 10.2568 100.357 11.03 100.357 12.5763V14.6412C100.357 15.2015 100.385 15.6475 100.44 15.9782ZM99.1127 14.0512V13.1865C97.7024 13.1627 96.9973 13.5398 96.9973 14.3165C96.9973 14.6091 97.0778 14.828 97.2425 14.9743C97.4072 15.1206 97.617 15.1931 97.8671 15.1931C98.1477 15.1931 98.41 15.1063 98.6491 14.9338C98.8894 14.7602 99.0371 14.5401 99.092 14.2701C99.1054 14.2094 99.1127 14.1357 99.1127 14.0512Z" fill="white"/>
<path d="M107.705 15.9778H106.57L106.51 15.0774H106.475C106.113 15.7625 105.495 16.1051 104.628 16.1051C103.935 16.1051 103.358 15.8398 102.9 15.3093C102.443 14.7788 102.215 14.0901 102.215 13.2444C102.215 12.3369 102.462 11.6018 102.96 11.0403C103.442 10.517 104.033 10.2553 104.735 10.2553C105.508 10.2553 106.048 10.5087 106.355 11.0166H106.38V7.79785H107.66V14.4672C107.66 15.0132 107.674 15.5163 107.705 15.9778ZM106.38 13.6132V12.6782C106.38 12.5165 106.368 12.3856 106.344 12.2857C106.272 11.986 106.118 11.7338 105.882 11.5304C105.644 11.327 105.357 11.2247 105.027 11.2247C104.55 11.2247 104.177 11.4091 103.902 11.779C103.63 12.1489 103.492 12.6211 103.492 13.198C103.492 13.7523 103.623 14.202 103.885 14.5481C104.162 14.9168 104.535 15.1012 105.002 15.1012C105.422 15.1012 105.758 14.9477 106.013 14.6397C106.259 14.3554 106.38 14.0128 106.38 13.6132Z" fill="white"/>
<path d="M118.64 13.1282C118.64 13.9906 118.388 14.6971 117.883 15.2514C117.353 15.8212 116.653 16.1055 115.776 16.1055C114.933 16.1055 114.261 15.8331 113.758 15.2859C113.258 14.7399 113.008 14.0512 113.008 13.221C113.008 12.3527 113.265 11.6402 113.782 11.0871C114.3 10.534 114.995 10.2568 115.872 10.2568C116.715 10.2568 117.395 10.5292 117.907 11.0752C118.395 11.6057 118.64 12.2908 118.64 13.1282ZM117.316 13.1687C117.316 12.6512 117.201 12.2076 116.973 11.8376C116.703 11.3904 116.322 11.1668 115.825 11.1668C115.312 11.1668 114.922 11.3904 114.652 11.8376C114.423 12.2076 114.31 12.6584 114.31 13.1913C114.31 13.7087 114.424 14.1523 114.652 14.5223C114.929 14.9695 115.315 15.1931 115.813 15.1931C116.301 15.1931 116.685 14.9659 116.961 14.5104C117.196 14.1333 117.316 13.6861 117.316 13.1687Z" fill="white"/>
<path d="M125.514 15.9781H124.237V12.7665C124.237 11.7769 123.851 11.2821 123.077 11.2821C122.697 11.2821 122.391 11.4177 122.155 11.6901C121.918 11.9624 121.799 12.2836 121.799 12.6511V15.9769H120.52V11.9731C120.52 11.4807 120.505 10.9466 120.475 10.3686H121.597L121.657 11.2452H121.692C121.842 10.9728 122.064 10.748 122.355 10.5684C122.702 10.359 123.089 10.2532 123.515 10.2532C124.05 10.2532 124.497 10.4221 124.852 10.7611C125.295 11.1762 125.514 11.7959 125.514 12.619V15.9781Z" fill="white"/>
<path d="M134.119 11.3043H132.711V14.0282C132.711 14.7204 132.961 15.0666 133.456 15.0666C133.686 15.0666 133.876 15.0475 134.026 15.0083L134.059 15.9539C133.806 16.0467 133.475 16.0931 133.066 16.0931C132.561 16.0931 132.168 15.9432 131.884 15.6435C131.598 15.3437 131.457 14.8394 131.457 14.1317V11.3043H130.616V10.3706H131.457V9.34286L132.71 8.97412V10.3694H134.118V11.3043H134.119Z" fill="white"/>
<path d="M140.887 15.9778H139.607V12.7901C139.607 11.785 139.222 11.2818 138.45 11.2818C137.857 11.2818 137.452 11.5732 137.23 12.1561C137.192 12.2786 137.17 12.4285 137.17 12.6045V15.9766H135.893V7.79785H137.17V11.1771H137.194C137.597 10.5622 138.174 10.2553 138.922 10.2553C139.451 10.2553 139.889 10.4242 140.237 10.7632C140.67 11.1855 140.887 11.8135 140.887 12.6437V15.9778Z" fill="white"/>
<path d="M147.869 12.9091C147.869 13.1327 147.852 13.3206 147.821 13.4741H143.987C144.004 14.0284 144.187 14.4506 144.542 14.7432C144.866 15.0049 145.285 15.1358 145.797 15.1358C146.365 15.1358 146.882 15.0477 147.348 14.8705L147.548 15.7364C147.003 15.9672 146.361 16.0826 145.618 16.0826C144.727 16.0826 144.026 15.8268 143.518 15.3154C143.008 14.8039 142.756 14.1176 142.756 13.2564C142.756 12.4107 142.991 11.7065 143.466 11.1451C143.961 10.5456 144.631 10.2458 145.476 10.2458C146.304 10.2458 146.932 10.5456 147.356 11.1451C147.699 11.6209 147.869 12.2097 147.869 12.9091ZM146.649 12.5867C146.659 12.2168 146.574 11.898 146.401 11.6292C146.179 11.2831 145.841 11.1094 145.384 11.1094C144.966 11.1094 144.626 11.2783 144.366 11.6173C144.154 11.8873 144.028 12.2097 143.987 12.5867H146.649Z" fill="white"/>
</svg>
