<svg xmlns="http://www.w3.org/2000/svg" width="26.025" height="18.927" viewBox="0 0 26.025 18.927">
  <path id="acute_24dp_1F1F1F_FILL0_wght400_GRAD0_opsz24" d="M56.561-781.073a9.133,9.133,0,0,1-6.713-2.75,9.133,9.133,0,0,1-2.75-6.713,9.148,9.148,0,0,1,2.75-6.7A9.109,9.109,0,0,1,56.561-800a9.123,9.123,0,0,1,6.7,2.765,9.123,9.123,0,0,1,2.765,6.7,9.109,9.109,0,0,1-2.765,6.713A9.147,9.147,0,0,1,56.561-781.073Zm0-2.366a6.845,6.845,0,0,0,5.028-2.07,6.845,6.845,0,0,0,2.07-5.028,6.845,6.845,0,0,0-2.07-5.028,6.845,6.845,0,0,0-5.028-2.07,6.845,6.845,0,0,0-5.028,2.07,6.845,6.845,0,0,0-2.07,5.028,6.845,6.845,0,0,0,2.07,5.028A6.845,6.845,0,0,0,56.561-783.439Zm2.691-2.691,1.686-1.686-3.194-3.194v-4.259H55.378v5.234Zm-18.069-7.955v-2.366h4.732v2.366ZM40-789.354v-2.366h5.915v2.366Zm1.183,4.732v-2.366h4.732v2.366ZM56.561-790.536Z" transform="translate(-40 800)" fill="#fff"/>
</svg>
