<svg xmlns="http://www.w3.org/2000/svg" xmlns:xlink="http://www.w3.org/1999/xlink" width="66.002" height="41.27" viewBox="0 0 66.002 41.27"><defs><style>.a,.b,.m{fill:none;}.a{stroke:#fff;}.a,.b{stroke-width:2px;}.b{stroke:#020b50;stroke-linecap:round;}.c{fill:url(#a);}.d{clip-path:url(#b);}.e{clip-path:url(#c);}.f{clip-path:url(#d);}.g{clip-path:url(#e);}.h{clip-path:url(#f);}.i{clip-path:url(#g);}.j{fill:#020b50;}.k{fill:#fff;}.l{stroke:none;}</style><linearGradient id="a" x1="0.015" y1="0.477" x2="0.988" y2="0.463" gradientUnits="objectBoundingBox"><stop offset="0" stop-color="#19b0dc"/><stop offset="1" stop-color="#020b50"/></linearGradient><clipPath id="b"><rect class="a" width="5.363" height="6.704" transform="translate(0 0)"/></clipPath><clipPath id="c"><rect class="a" width="4.022" height="6.704" transform="translate(0 0)"/></clipPath><clipPath id="d"><rect class="a" width="4.022" height="2.681"/></clipPath><clipPath id="e"><rect class="a" width="4.022" height="6.704"/></clipPath><clipPath id="f"><rect class="a" width="5.363" height="6.704" transform="translate(0)"/></clipPath><clipPath id="g"><rect class="a" width="5.363" height="2.681" transform="translate(0 0)"/></clipPath></defs><g transform="translate(-342.998 -487)"><path class="b" d="M1890,1260.29s0-3.5,0-7.745-2.8-6.545-6.4-6.545h-51.2c-6.454,0-6.4,6.545-6.4,6.545v26.18s-.157,6.545,6.4,6.545H1866" transform="translate(-1482 -758)"/><g transform="translate(-107 -50)"><rect class="c" width="20" height="23" rx="2" transform="translate(495 555)"/><g transform="translate(499.53 558.143)"><g transform="translate(0.47 6.561)"><g class="d" transform="translate(4.022 2.681)"><g class="a" transform="translate(-2.681 -2.681)"><rect class="l" width="5.363" height="9.385" rx="2.681"/><rect class="m" x="1" y="1" width="3.363" height="7.385" rx="1.681"/></g></g><g class="e" transform="translate(0 2.681)"><g class="a" transform="translate(1.341 -2.681)"><rect class="l" width="5.363" height="9.385" rx="2.681"/><rect class="m" x="1" y="1" width="3.363" height="7.385" rx="1.681"/></g></g><g class="f" transform="translate(0 0)"><g class="a" transform="translate(1.341)"><rect class="l" width="5.363" height="9.385" rx="2.681"/><rect class="m" x="1" y="1" width="3.363" height="7.385" rx="1.681"/></g></g></g><g transform="translate(0.47 -0.143)"><g class="g"><g class="a" transform="translate(1.341)"><rect class="l" width="5.363" height="9.385" rx="2.681"/><rect class="m" x="1" y="1" width="3.363" height="7.385" rx="1.681"/></g></g><g class="h" transform="translate(4.022)"><g class="a" transform="translate(-2.681)"><rect class="l" width="5.363" height="9.385" rx="2.681"/><rect class="m" x="1" y="1" width="3.363" height="7.385" rx="1.681"/></g></g><g class="i" transform="translate(4.022 6.704)"><g class="a" transform="translate(-2.681 -6.704)"><rect class="l" width="5.363" height="9.385" rx="2.681"/><rect class="m" x="1" y="1" width="3.363" height="7.385" rx="1.681"/></g></g></g></g></g><g transform="translate(4.971 0.057)"><g transform="translate(347 516.221)"><rect class="j" width="1.876" height="22.262" rx="0.938" transform="translate(23.085) rotate(90)"/><rect class="j" width="2.633" height="24.029" rx="1" transform="translate(24.029 2.413) rotate(90)"/></g><g transform="translate(347.909 494.619)"><path class="j" d="M11.339,0l10.9,6.159H.422Z" transform="translate(-0.07 0)"/><g transform="translate(3.639 10.324)"><rect class="j" width="3.225" height="10.86" rx="1" transform="translate(6.022)"/><rect class="j" width="3.225" height="10.86" rx="1" transform="translate(12.045)"/><rect class="j" width="3.225" height="10.86" rx="1"/></g><rect class="j" width="3.544" height="22.547" rx="1" transform="translate(0 9.566) rotate(-90)"/><circle class="k" cx="2.087" cy="2.087" r="2.087" transform="translate(9.015 3.339)"/></g></g></g></svg>