<svg xmlns="http://www.w3.org/2000/svg" xmlns:xlink="http://www.w3.org/1999/xlink" width="67.123" height="41.27" viewBox="0 0 67.123 41.27"><defs><style>.a,.e{fill:#fff;}.b{fill:#020b50;}.c{clip-path:url(#a);}.d{stroke:#707070;fill:url(#b);}.e{stroke:#fff;stroke-linejoin:round;}.f,.g,.i{fill:none;}.f,.g{stroke:#020b50;}.f{stroke-width:3px;stroke-dasharray:1.5 2;}.g{stroke-linecap:round;stroke-width:2px;}.h{stroke:none;}</style><clipPath id="a"><path class="a" d="M2,23a2,2,0,0,1-2-2V12a2,2,0,0,1,2-2H2V8H2A8,8,0,0,1,18,8L15,8A5,5,0,1,0,5,8H5v2H18a2,2,0,0,1,2,2v9a2,2,0,0,1-2,2Z"/></clipPath><linearGradient id="b" y1="0.531" x2="1" y2="0.537" gradientUnits="objectBoundingBox"><stop offset="0" stop-color="#19b0dc"/><stop offset="1" stop-color="#020b50"/></linearGradient></defs><g transform="translate(-262.998 -552.5)"><g transform="translate(267.558 557.635)"><path class="b" d="M3.893,11.628A.887.887,0,0,1,3.12,10.3C4.247,8.4,7.673,3.961,15.156,3.961A14.156,14.156,0,0,1,23.6,6.519a14.329,14.329,0,0,1,3.552,3.729.88.88,0,0,1-.234,1.228.9.9,0,0,1-1.241-.234A11.972,11.972,0,0,0,15.156,5.721c-6.559,0-9.522,3.824-10.491,5.464A.874.874,0,0,1,3.893,11.628Z" transform="translate(0 0.863)"/><path class="b" d="M18.664,28.145a.882.882,0,0,1-.222-.025c-5.426-1.361-7.452-6.844-7.534-7.072L10.9,21c-.044-.158-1.133-3.919.538-6.122a4.1,4.1,0,0,1,3.47-1.52,3.7,3.7,0,0,1,3.172,1.38,6.91,6.91,0,0,1,1.045,2.6c.475,1.88.817,2.868,2.792,2.969a2.039,2.039,0,0,0,1.76-.905,5.3,5.3,0,0,0,.367-4.844C23.191,12.342,20.19,8.17,14.9,8.17a9.282,9.282,0,0,0-6,2.115,9.744,9.744,0,0,0-3,4.419c-.975,3.09.3,7.946.317,7.99a.878.878,0,0,1-.633,1.076.9.9,0,0,1-1.1-.627c-.057-.222-1.425-5.4-.3-8.972A11.253,11.253,0,0,1,22.1,9.018a12.353,12.353,0,0,1,3.609,4.9,7,7,0,0,1-.6,6.509,3.793,3.793,0,0,1-3.292,1.634c-3.381-.171-3.989-2.558-4.432-4.3-.456-1.785-.747-2.647-2.488-2.647a2.386,2.386,0,0,0-2.045.817,4.315,4.315,0,0,0-.551,2.786,9.092,9.092,0,0,0,.3,1.76c.139.355,1.95,4.844,6.287,5.933a.88.88,0,0,1,.646,1.07A.9.9,0,0,1,18.664,28.145Z" transform="translate(0.26 1.72)"/><path class="b" d="M10.824,26.859a.9.9,0,0,1-.652-.279,14.224,14.224,0,0,1-3.862-8.1v-.019a9.457,9.457,0,0,1,1.982-7.23,7.339,7.339,0,0,1,5.73-2.311,7.111,7.111,0,0,1,6.528,3.894,10.945,10.945,0,0,1,1.228,3.767A.894.894,0,0,1,20,16.76h0a9.165,9.165,0,0,0-1.045-3.147,5.34,5.34,0,0,0-4.939-2.931A5.616,5.616,0,0,0,9.621,12.4,7.778,7.778,0,0,0,8.07,18.235a12.485,12.485,0,0,0,3.4,7.142.876.876,0,0,1-.044,1.247A.9.9,0,0,1,10.824,26.859Z" transform="translate(1.135 2.601)"/><path class="b" d="M19.04,22.461a7.363,7.363,0,0,1-4.806-1.589,8.872,8.872,0,0,1-2.9-5.7.892.892,0,0,1,1.779-.139,7.187,7.187,0,0,0,2.267,4.489A6.141,6.141,0,0,0,20.1,20.632a.89.89,0,0,1,.988.779.879.879,0,0,1-.785.975A10.838,10.838,0,0,1,19.04,22.461Z" transform="translate(2.922 4.459)"/><path class="b" d="M22.6,3.437C21.856,2.95,19.228,1.5,14.29,1.5c-5.185,0-7.819,1.6-8.4,2.007a.691.691,0,0,0-.108.082.02.02,0,0,1-.013.006h0a.879.879,0,0,0,.6,1.539.9.9,0,0,0,.519-.165h0l-.006.006c.025-.019,2.3-1.709,7.414-1.709s7.389,1.7,7.414,1.709L21.7,4.97l.013-.013a.887.887,0,1,0,.886-1.52Z" transform="translate(0.866)"/></g><g transform="translate(-544 157.5)"><g class="c" transform="translate(844.271 413)"><g class="d" transform="translate(-4 -3)"><rect class="h" width="27" height="30"/><rect class="i" x="0.5" y="0.5" width="26" height="29"/></g></g><path class="e" d="M1.5,3.5v0ZM0,1.5A1.5,1.5,0,1,1,1.5,3,1.5,1.5,0,0,1,0,1.5Z" transform="translate(852.698 428)"/><path class="f" d="M0,0A6.5,6.5,0,0,1,6.5,6.5" transform="translate(867.404 417.97) rotate(45)"/></g><path class="g" d="M1890,1265.635v-13.09c0-4.244-2.8-6.545-6.4-6.545h-51.2c-6.454,0-6.4,6.545-6.4,6.545v26.18s-.157,6.545,6.4,6.545h24.162" transform="translate(-1562 -692.5)"/></g></svg>