<svg xmlns="http://www.w3.org/2000/svg" xmlns:xlink="http://www.w3.org/1999/xlink" width="66.098" height="42.066" viewBox="0 0 66.098 42.066">
  <defs>
    <linearGradient id="linear-gradient" y1="0.5" x2="1" y2="0.5" gradientUnits="objectBoundingBox">
      <stop offset="0" stop-color="#19b0dc"/>
      <stop offset="1" stop-color="#020b50"/>
    </linearGradient>
    <linearGradient id="linear-gradient-2" x1="0.5" x2="0.5" y2="1" gradientUnits="objectBoundingBox">
      <stop offset="0" stop-color="#18a6d5"/>
      <stop offset="1" stop-color="#04175a"/>
    </linearGradient>
  </defs>
  <g id="Check-Deceased-Aadhaar-deactivation-status2" transform="translate(-875.925 -522.953)">
    <rect id="Rectangle_3" data-name="Rectangle 3" width="26" height="31" rx="3" transform="translate(916 534)" fill="url(#linear-gradient)"/>
    <path id="deceased_24dp_5F6368_FILL0_wght400_GRAD0_opsz24" d="M209.324-850.294a9.4,9.4,0,0,0-.949-1.98,9.923,9.923,0,0,0-1.362-1.692,10.774,10.774,0,0,0-1.692-1.382,8.826,8.826,0,0,0-1.98-.969,6.062,6.062,0,0,0,.578,2.228,6.728,6.728,0,0,0,1.32,1.857,7.1,7.1,0,0,0,1.857,1.341A5.824,5.824,0,0,0,209.324-850.294Zm4.456,0a6.7,6.7,0,0,0,2.228-.619,6.73,6.73,0,0,0,1.857-1.32,6.727,6.727,0,0,0,1.32-1.857,6.7,6.7,0,0,0,.619-2.228,9.9,9.9,0,0,0-2,.949,9.543,9.543,0,0,0-1.712,1.362,9.549,9.549,0,0,0-1.362,1.712A9.91,9.91,0,0,0,213.78-850.294Zm-2.228-14.853a6.357,6.357,0,0,0,4.662-1.939,6.357,6.357,0,0,0,1.939-4.662v-1.98l-2.888,2.434-3.713-4.5-3.713,4.5-2.888-2.434v1.98a6.357,6.357,0,0,0,1.939,4.662A6.357,6.357,0,0,0,211.552-865.147Zm-1.65,18.154a9.549,9.549,0,0,1-7.014-2.888A9.549,9.549,0,0,1,200-856.9v-3.3a12.288,12.288,0,0,1,5.529,1.2,12.882,12.882,0,0,1,4.373,3.342v-6.312a9.572,9.572,0,0,1-5.9-3.321,9.607,9.607,0,0,1-2.352-6.457v-5.611a1.528,1.528,0,0,1,.949-1.506,1.554,1.554,0,0,1,1.774.268l3.053,2.64,2.847-3.466a1.607,1.607,0,0,1,1.279-.578,1.607,1.607,0,0,1,1.279.578l2.847,3.466,3.053-2.64a1.554,1.554,0,0,1,1.774-.268,1.528,1.528,0,0,1,.949,1.506v5.611a9.607,9.607,0,0,1-2.352,6.457,9.572,9.572,0,0,1-5.9,3.321v6.313A12.882,12.882,0,0,1,217.576-859a12.288,12.288,0,0,1,5.529-1.2v3.3a9.549,9.549,0,0,1-2.888,7.014,9.549,9.549,0,0,1-7.014,2.888ZM211.552-870.469ZM216.792-853.306ZM206.354-853.306Z" transform="translate(687.979 1407.497)" fill="url(#linear-gradient-2)"/>
    <path id="Path_4" data-name="Path 4" d="M772,531.24s1.033-6.773-6.434-7.04-49.534-.038-52.533,0c-2.3.2-5.353.884-5.067,7.04-.133,6.16.023,26.245.023,26.245s-.756,6.435,5.067,6.533H742.99" transform="translate(169.019)" fill="none" stroke="#020b50" stroke-linecap="round" stroke-width="2"/>
    <path id="edit_24dp_5F6368_FILL0_wght400_GRAD0_opsz24" d="M121.778-825.778h1.267l8.689-8.689-1.267-1.267-8.689,8.689ZM120-824v-3.778l11.733-11.711a2,2,0,0,1,.589-.378A1.756,1.756,0,0,1,133-840a1.839,1.839,0,0,1,.689.133,1.56,1.56,0,0,1,.578.4l1.222,1.244a1.452,1.452,0,0,1,.389.578,1.926,1.926,0,0,1,.122.667,1.9,1.9,0,0,1-.122.678,1.665,1.665,0,0,1-.389.589L123.778-824Zm14.222-12.978-1.244-1.244Zm-3.133,1.889-.622-.645,1.267,1.267Z" transform="translate(801 1381.5)" fill="#fff"/>
  </g>
</svg>
