<svg xmlns="http://www.w3.org/2000/svg" xmlns:xlink="http://www.w3.org/1999/xlink" width="66.098" height="42.066" viewBox="0 0 66.098 42.066">
  <defs>
    <linearGradient id="linear-gradient" x1="0.5" y1="1" x2="0.5" gradientUnits="objectBoundingBox">
      <stop offset="0" stop-color="#04185b"/>
      <stop offset="1" stop-color="#18a5d4"/>
    </linearGradient>
    <linearGradient id="linear-gradient-2" y1="0.5" x2="1" y2="0.5" gradientUnits="objectBoundingBox">
      <stop offset="0" stop-color="#19b0dc"/>
      <stop offset="1" stop-color="#020b50"/>
    </linearGradient>
    <clipPath id="clip-path">
      <path id="Path_46" data-name="Path 46" d="M-1085.631-862.341l-4.6-4.6a1.781,1.781,0,0,1-.387-1.94,1.781,1.781,0,0,1,1.644-1.1h2.824v-6.233a1.781,1.781,0,0,1,1.781-1.781,1.781,1.781,0,0,1,1.781,1.781v6.233h2.824a1.781,1.781,0,0,1,1.646,1.1,1.781,1.781,0,0,1-.387,1.941l-4.605,4.6a1.775,1.775,0,0,1-1.259.522,1.776,1.776,0,0,1-1.257-.522Z" transform="translate(1090.758 878)" fill="#fff"/>
    </clipPath>
  </defs>
  <g id="DownloadAadhaar" transform="translate(-1300.925 -543.417)">
    <g id="Group_30" data-name="Group 30" transform="translate(379 -235.488)">
      <path id="Path_43" data-name="Path 43" d="M25.48,53.049a4.768,4.768,0,0,0-.082-6.6,4.525,4.525,0,0,0-6.457,0,4.768,4.768,0,0,0-.082,6.6,7.183,7.183,0,0,0-3.69,6.3,1.125,1.125,0,1,0,2.25,0,4.75,4.75,0,1,1,9.5,0,1.125,1.125,0,1,0,2.249,0,7.183,7.183,0,0,0-3.689-6.3ZM19.828,49.8a2.345,2.345,0,1,1,2.345,2.4,2.371,2.371,0,0,1-2.345-2.4Z" transform="translate(918.83 746.902)" fill="url(#linear-gradient)"/>
      <g id="Group_28" data-name="Group 28" transform="translate(314 455.5)">
        <line id="Line_9" data-name="Line 9" x2="8.883" transform="translate(637.5 338.5)" fill="none" stroke="#2175af" stroke-linecap="round" stroke-width="1"/>
        <line id="Line_10" data-name="Line 10" x2="8.883" transform="translate(637.5 342.5)" fill="none" stroke="#2175af" stroke-linecap="round" stroke-width="1"/>
        <line id="Line_11" data-name="Line 11" x2="8.883" transform="translate(637.5 350.5)" fill="none" stroke="#2175af" stroke-linecap="round" stroke-width="1"/>
        <line id="Line_12" data-name="Line 12" x2="8.883" transform="translate(637.5 346.5)" fill="none" stroke="#2175af" stroke-linecap="round" stroke-width="1"/>
      </g>
      <path id="Path_44" data-name="Path 44" d="M1867.88,1256.07V1250a3.847,3.847,0,0,0-4.188-4h-33.506a3.95,3.95,0,0,0-4.188,4v16a3.9,3.9,0,0,0,4.188,4H1858" transform="translate(-896 -458)" fill="none" stroke="#2072a0" stroke-linecap="round" stroke-width="2"/>
    </g>
    <rect id="Rectangle_3" data-name="Rectangle 3" width="26" height="31" rx="3" transform="translate(1341 554.464)" fill="url(#linear-gradient-2)"/>
    <path id="Path_4" data-name="Path 4" d="M772,531.24s1.033-6.773-6.434-7.04-49.534-.038-52.533,0c-2.3.2-5.353.884-5.067,7.04-.133,6.16.023,26.245.023,26.245s-.756,6.435,5.067,6.533H742.99" transform="translate(594.019 20.464)" fill="none" stroke="#020b50" stroke-linecap="round" stroke-width="2"/>
    <path id="Path_45" data-name="Path 45" d="M-1077.527-1761.876h-15.138a1.336,1.336,0,0,1-1.336-1.336v-4.452a1.336,1.336,0,0,1,1.336-1.336,1.336,1.336,0,0,1,1.336,1.336v3.117h12.466v-3.117a1.336,1.336,0,0,1,1.336-1.336,1.336,1.336,0,0,1,1.336,1.336v4.452A1.336,1.336,0,0,1-1077.527-1761.876Z" transform="translate(2439.095 2342.025)" fill="#fff"/>
    <g id="Group_29" data-name="Group 29" transform="translate(1347.512 558.778)" clip-path="url(#clip-path)">
      <rect id="Rectangle_13" data-name="Rectangle 13" width="17.809" height="21.371" transform="translate(-2.677 -2.671)" fill="#fff"/>
    </g>
  </g>
</svg>
