<?xml version="1.0" encoding="UTF-8"?>
<svg version="1.1" xmlns="http://www.w3.org/2000/svg" width="512" height="512">
<path d="M0 0 C1.01790619 0.00215515 2.03581238 0.0043103 3.08456421 0.00653076 C17.69363523 0.05620146 32.02575853 0.30709809 46.375 3.3125 C47.34985352 3.51117676 48.32470703 3.70985352 49.32910156 3.91455078 C97.7109774 14.03517194 141.69928269 35.9516877 177.375 70.3125 C178.3640332 71.26068604 178.3640332 71.26068604 179.37304688 72.22802734 C188.86130305 81.37247479 197.6012044 90.66984009 205.375 101.3125 C206.23306152 102.46355017 207.09113451 103.61459177 207.94921875 104.765625 C213.98736829 112.95680614 219.34595521 121.47054105 224.375 130.3125 C224.73948242 130.94430176 225.10396484 131.57610352 225.47949219 132.22705078 C247.08534998 169.97532572 256.85198095 212.74189997 256.6875 255.9375 C256.68534485 256.95540619 256.6831897 257.97331238 256.68096924 259.02206421 C256.63129854 273.63113523 256.38040191 287.96325853 253.375 302.3125 C253.07698486 303.77478027 253.07698486 303.77478027 252.77294922 305.26660156 C242.65232806 353.6484774 220.7358123 397.63678269 186.375 433.3125 C185.74287598 433.97185547 185.11075195 434.63121094 184.45947266 435.31054688 C175.31502521 444.79880305 166.01765991 453.5387044 155.375 461.3125 C154.22394983 462.17056152 153.07290823 463.02863451 151.921875 463.88671875 C143.73224019 469.92427396 135.22961724 475.30707302 126.375 480.3125 C125.66778809 480.7146875 124.96057617 481.116875 124.23193359 481.53125 C101.09654164 494.5566741 75.92537591 503.30551461 49.9375 508.625 C49.21860596 508.77235596 48.49971191 508.91971191 47.7590332 509.0715332 C33.08339502 511.86090125 18.55831162 512.66142619 3.64770508 512.62817383 C0.70811513 512.6250221 -2.2304558 512.64854926 -5.16992188 512.67382812 C-18.54306192 512.71848737 -31.43916711 511.51301542 -44.625 509.3125 C-46.33055054 509.03031616 -46.33055054 509.03031616 -48.07055664 508.74243164 C-91.33802759 500.97044532 -132.38793216 480.98345309 -165.625 452.3125 C-166.37007813 451.67828125 -167.11515625 451.0440625 -167.8828125 450.390625 C-181.38779833 438.57948485 -194.05918743 425.82889772 -204.625 411.3125 C-205.48149066 410.16255169 -206.33826433 409.01281411 -207.1953125 407.86328125 C-213.23534209 399.67315742 -218.61867614 391.16870382 -223.625 382.3125 C-224.0271875 381.60528809 -224.429375 380.89807617 -224.84375 380.16943359 C-237.8691741 357.03404164 -246.61801461 331.86287591 -251.9375 305.875 C-252.08485596 305.15610596 -252.23221191 304.43721191 -252.3840332 303.6965332 C-255.35789088 288.05024391 -255.99800362 272.57681954 -255.9375 256.6875 C-255.93534485 255.66959381 -255.9331897 254.65168762 -255.93096924 253.60293579 C-255.88129854 238.99386477 -255.63040191 224.66174147 -252.625 210.3125 C-252.42632324 209.33764648 -252.22764648 208.36279297 -252.02294922 207.35839844 C-241.90232806 158.9765226 -219.9858123 114.98821731 -185.625 79.3125 C-184.99287598 78.65314453 -184.36075195 77.99378906 -183.70947266 77.31445312 C-174.56502521 67.82619695 -165.26765991 59.0862956 -154.625 51.3125 C-153.47394983 50.45443848 -152.32290823 49.59636549 -151.171875 48.73828125 C-142.98224019 42.70072604 -134.47961724 37.31792698 -125.625 32.3125 C-124.91778809 31.9103125 -124.21057617 31.508125 -123.48193359 31.09375 C-100.34654164 18.0683259 -75.17537591 9.31948539 -49.1875 4 C-48.46860596 3.85264404 -47.74971191 3.70528809 -47.0090332 3.5534668 C-31.36274391 0.57960912 -15.88931954 -0.06050362 0 0 Z " fill="#EC584A" transform="translate(255.625,-0.3125)"/>
<path d="M0 0 C1.55070483 -0.00379403 3.10140625 -0.00930293 4.65209961 -0.01637268 C8.81937909 -0.03019995 12.98623982 -0.01924987 17.15349555 -0.00266147 C21.53786435 0.01130772 25.92221175 0.00471585 30.30659485 0.00120544 C37.66230935 -0.00148652 45.01785972 0.01189417 52.37353516 0.03515625 C60.85335025 0.06178931 69.33289168 0.06349984 77.81273431 0.05176789 C86.00654232 0.04095693 94.20025225 0.04720124 102.39405251 0.06132317 C105.86546995 0.06705126 109.33681485 0.06702556 112.80823326 0.06225777 C116.9001382 0.05745491 120.99174664 0.06772523 125.08359528 0.08921242 C126.57704227 0.0947346 128.07051802 0.09528809 129.56396675 0.09025955 C146.9426336 0.03911932 162.98070103 4.5332446 175.73950195 16.93530273 C188.37370739 31.34619332 190.6204511 46.89247164 190.52075195 65.31420898 C190.5234554 67.09912323 190.52734485 68.88403603 190.53234863 70.66894531 C190.53820366 74.38710729 190.52981119 78.1048816 190.51098633 81.82299805 C190.48819912 86.54992038 190.50134389 91.27593375 190.52527618 96.00282288 C190.53984324 99.68183031 190.53507869 103.36062802 190.52476501 107.03964233 C190.52212773 108.78087476 190.52525974 110.52212726 190.53468323 112.26333618 C190.61144583 130.42547925 187.14545981 146.75107186 174.23950195 160.43920898 C162.61596842 171.09411473 148.28860151 175.70875491 132.83422852 175.54833984 C130.72031845 175.53556849 128.60640637 175.52312764 126.49249268 175.51097107 C125.37467659 175.50305479 124.2568605 175.49513851 123.1051712 175.48698235 C115.93123754 175.44480715 108.75713699 175.45671036 101.58310318 175.45687008 C95.28228401 175.4538708 88.98245369 175.43311581 82.68188477 175.375 C76.5807596 175.31977712 70.48129494 175.31337264 64.37999725 175.33969307 C62.05961017 175.34092601 59.73914181 175.32448468 57.41901398 175.28977776 C44.88413056 174.46055686 44.88413056 174.46055686 33.60031128 178.70283508 C31.32238735 181.20236058 29.6428261 183.56445602 27.98950195 186.50170898 C27.17739258 187.4672168 26.3652832 188.43272461 25.52856445 189.42749023 C24.89692383 190.21510742 24.2652832 191.00272461 23.61450195 191.81420898 C20.28932503 195.92143971 16.91301248 199.97666672 13.48950195 204.00170898 C10.04759971 208.04921402 6.65005668 212.12570694 3.30200195 216.25170898 C-0.66523957 221.1284084 -4.78955236 225.84371715 -9.01049805 230.50170898 C-12.88549805 229.62670898 -12.88549805 229.62670898 -14.01049805 228.50170898 C-14.10402968 226.81368913 -14.12794595 225.12175691 -14.12402344 223.43115234 C-14.12394791 222.35010727 -14.12387238 221.26906219 -14.12379456 220.15525818 C-14.11863327 218.97923538 -14.11347198 217.80321259 -14.1081543 216.59155273 C-14.10673935 215.39438126 -14.1053244 214.19720978 -14.10386658 212.96376038 C-14.09824784 209.12221832 -14.08569216 205.28073356 -14.07299805 201.43920898 C-14.06798546 198.84220461 -14.06342214 196.24519934 -14.05932617 193.64819336 C-14.04827232 187.2660122 -14.03151597 180.88386468 -14.01049805 174.50170898 C-15.27200684 174.35241943 -16.53351563 174.20312988 -17.83325195 174.04931641 C-30.67608952 172.52946853 -42.91697575 165.52625838 -51.01049805 155.50170898 C-58.60539654 144.32287245 -62.13806879 133.90326715 -62.1875 120.40771484 C-62.1940712 119.61817413 -62.2006424 118.82863342 -62.20741272 118.01516724 C-62.227037 115.41562788 -62.23878618 112.8161461 -62.2487793 110.21655273 C-62.25285482 109.32257845 -62.25693035 108.42860416 -62.26112938 107.50753975 C-62.28194746 102.7722815 -62.29626554 98.03705183 -62.30566406 93.30175781 C-62.31669808 88.44233464 -62.35107545 83.58337317 -62.39083576 78.72411251 C-62.41714426 74.96026331 -62.42536861 71.19652161 -62.42894554 67.43258858 C-62.4337776 65.64305071 -62.4452934 63.85351653 -62.46398354 62.06406975 C-62.63378237 44.72459543 -59.64156977 29.51619167 -47.38549805 16.25170898 C-33.59637319 3.52328604 -18.28031316 -0.12945731 0 0 Z " fill="#FDFCFC" transform="translate(154.010498046875,122.498291015625)"/>
<path d="M0 0 C4.47992337 -0.10017029 8.95922384 -0.17206949 13.43994141 -0.21972656 C14.95861185 -0.23962882 16.47720788 -0.26676104 17.99560547 -0.30175781 C33.16468474 -0.64218599 45.02001452 2.06419887 56.6875 12.375 C67.95766282 25.1681578 70.31952727 36.37244582 70.30078125 53.18359375 C70.30467749 54.64893208 70.30901404 56.1142693 70.31376648 57.5796051 C70.32119067 60.63814977 70.32096497 63.69657893 70.31567383 66.75512695 C70.30988037 70.64955275 70.32682545 74.54350276 70.3500185 78.43785 C70.36484063 81.46042077 70.36561617 84.48287912 70.36250877 87.50547981 C70.36301761 88.94021612 70.36817186 90.37495946 70.37832069 91.80965996 C70.47621454 107.57912959 66.94382215 119.32011461 56.10546875 130.9921875 C49.26552925 137.51487563 41.1864051 140.51605427 32 142 C31.96241577 143.94604126 31.96241577 143.94604126 31.92407227 145.93139648 C31.83018248 150.72658856 31.72991751 155.5216295 31.62768555 160.31665039 C31.58426666 162.39539057 31.54259688 164.47416803 31.50268555 166.55297852 C31.44515079 169.53413145 31.38140881 172.51509549 31.31640625 175.49609375 C31.29133751 176.89921059 31.29133751 176.89921059 31.26576233 178.33067322 C31.24581711 179.19149002 31.22587189 180.05230682 31.20532227 180.93920898 C31.18977798 181.70087875 31.1742337 182.46254852 31.15821838 183.24729919 C31 185 31 185 30 186 C27.68359375 186.33984375 27.68359375 186.33984375 25 186 C23.03515625 184.19140625 23.03515625 184.19140625 21.0625 181.5625 C20.28648437 180.55832031 19.51046875 179.55414063 18.7109375 178.51953125 C18.28264648 177.95830566 17.85435547 177.39708008 17.41308594 176.81884766 C14.75362281 173.39573081 11.95804806 170.08329771 9.1875 166.75 C8.09605528 165.43361743 7.00626021 164.11586566 5.91796875 162.796875 C5.05149216 161.78578674 5.05149216 161.78578674 4.16751099 160.75427246 C2.49300878 158.62646996 1.10553408 156.59652349 -0.30448914 154.30455017 C-5.72688195 145.9183205 -5.72688195 145.9183205 -14.39094543 141.66659546 C-19.59603537 141.05124576 -24.77448461 141.25941825 -30 141.45703125 C-31.92703827 141.47276787 -33.85414814 141.48123535 -35.78125 141.48283386 C-40.82931094 141.50364889 -45.87165883 141.61038046 -50.91796875 141.73962402 C-58.98951716 141.93047931 -67.06337346 141.98321556 -75.13671875 142.04761314 C-77.93596294 142.08126149 -80.73278943 142.14786266 -83.53125 142.22090149 C-98.62932931 142.52718951 -110.10604664 139.85977274 -121.6875 129.625 C-128.05386396 122.39831658 -132.5944936 116.01638037 -133.57421875 106.24609375 C-133.65631592 105.44743896 -133.73841309 104.64878418 -133.82299805 103.82592773 C-133.88140869 103.22337158 -133.93981934 102.62081543 -134 102 C-132.97650955 101.99635437 -131.9530191 101.99270874 -130.89851379 101.98895264 C-121.20443798 101.95184592 -111.51067523 101.89390376 -101.81683826 101.81609726 C-96.8343413 101.77676095 -91.85201741 101.74450502 -86.86938477 101.72900391 C-82.05159088 101.71374553 -77.23427327 101.67913933 -72.41669273 101.63169098 C-70.5881536 101.61697119 -68.75954644 101.60896445 -66.93094826 101.60811615 C-48.35784898 101.59085089 -31.17201531 97.87533577 -17.31640625 84.53125 C-9.21126683 75.67436914 -5.18684233 66.37962583 -2 55 C-1.8204628 54.37889343 -1.6409256 53.75778687 -1.45594788 53.11785889 C-0.92697223 50.66078906 -0.83822761 48.37770752 -0.79467773 45.86425781 C-0.77473251 44.84350159 -0.75478729 43.82274536 -0.73423767 42.77105713 C-0.71752518 41.67613953 -0.70081268 40.58122192 -0.68359375 39.453125 C-0.6524221 37.76361725 -0.6524221 37.76361725 -0.62062073 36.03997803 C-0.55525667 32.44338051 -0.49630115 28.84671023 -0.4375 25.25 C-0.3943023 22.8111904 -0.3506876 20.37238816 -0.30664062 17.93359375 C-0.1995887 11.955806 -0.09779783 5.97794593 0 0 Z " fill="#FDFCFC" transform="translate(350,202)"/>
<path d="M0 0 C7.95313861 4.64416853 13.21234729 11.46516688 16.140625 20.25 C16.9184338 30.03927928 16.81549174 37.81876941 11.140625 46.25 C6.46640462 44.33155581 3.76207474 40.74668206 0.45703125 37.05078125 C-1.73976577 34.92379821 -1.73976577 34.92379821 -4.64453125 35.48046875 C-5.37542969 35.73441406 -6.10632813 35.98835938 -6.859375 36.25 C-6.31975148 40.33031121 -4.18590322 42.38041887 -1.421875 45.3125 C1.01273876 47.91124502 3.16257526 50.28292539 5.140625 53.25 C-4.05066666 59.09900378 -12.23522094 60.820804 -22.859375 59.25 C-32.06022971 56.36755289 -38.29823607 51.25609999 -43.16796875 43.04296875 C-46.95240673 35.14671926 -47.6076902 25.57095929 -44.87109375 17.2421875 C-41.62028931 10.49903277 -37.72221524 5.4513657 -31.296875 1.5 C-30.34683594 0.90703125 -29.39679688 0.3140625 -28.41796875 -0.296875 C-20.24295757 -4.93978211 -8.30141758 -3.95829183 0 0 Z " fill="#FDFCFC" transform="translate(293.859375,184.75)"/>
<path d="M0 0 C4.34000522 3.68026083 7.35672669 7.76611361 10.0625 12.75 C10.47628906 13.51054687 10.89007813 14.27109375 11.31640625 15.0546875 C15.7148568 24.40331063 15.28799713 34.9045157 12.00390625 44.56640625 C11.07408427 46.72313025 9.99151872 48.63436152 8.75 50.625 C6.73527378 53.5158732 6.73527378 53.5158732 7.625 56 C9.00967934 57.79072791 9.00967934 57.79072791 10.75 59.1875 C11.183125 59.703125 11.61625 60.21875 12.0625 60.75 C11.75 63.4375 11.75 63.4375 11.0625 65.75 C8.3125 66 8.3125 66 5.0625 65.75 C2.6875 63.75 2.6875 63.75 1.0625 61.75 C-0.913019 62.73118904 -2.88126921 63.72031942 -4.83203125 64.75 C-5.46496094 65.08 -6.09789062 65.41 -6.75 65.75 C-7.68779297 66.245 -7.68779297 66.245 -8.64453125 66.75 C-17.79542619 70.74085027 -28.86253956 71.67428091 -38.3125 68.125 C-39.87734888 67.38020459 -41.4205729 66.5880957 -42.9375 65.75 C-44.10732422 65.11384766 -44.10732422 65.11384766 -45.30078125 64.46484375 C-54.48969391 58.92060905 -59.80983036 50.9065186 -62.9375 40.75 C-65.42008166 29.97559559 -63.64772751 19.22392524 -58.375 9.5 C-52.70683617 0.77327253 -43.64927799 -5.39462952 -33.55078125 -7.82421875 C-21.14274615 -9.84585676 -10.23793274 -7.35690644 0 0 Z M-42.9375 4.75 C-44.01 5.471875 -45.0825 6.19375 -46.1875 6.9375 C-53.37484412 14.28819285 -56.24122007 21.68716573 -56.25219727 31.84594727 C-56.07428594 40.6288714 -53.1821265 47.58487053 -47.08984375 53.921875 C-39.29468898 60.54280501 -30.97060422 62.95430977 -20.875 62.359375 C-14.85297632 61.42739514 -10.04026137 58.99721178 -4.9375 55.75 C-5.30101562 55.32589844 -5.66453125 54.90179688 -6.0390625 54.46484375 C-7.0957759 53.23201145 -8.148919 51.9961134 -9.19921875 50.7578125 C-10.34214844 49.43766449 -11.51118007 48.13959427 -12.70703125 46.8671875 C-13.25746094 46.27164063 -13.80789063 45.67609375 -14.375 45.0625 C-15.14650391 44.25232422 -15.14650391 44.25232422 -15.93359375 43.42578125 C-16.9375 41.75 -16.9375 41.75 -16.59765625 39.54296875 C-16.37980469 38.95128906 -16.16195312 38.35960937 -15.9375 37.75 C-11.0141711 38.1654335 -9.04312612 40.27027206 -5.75 43.8125 C-4.17990961 45.49087249 -2.58289106 47.14537969 -0.9375 48.75 C-0.2775 48.75 0.3825 48.75 1.0625 48.75 C6.62731539 40.48227428 7.28228122 32.37163427 6.0625 22.75 C4.88273629 19.00364829 3.29200847 15.97108544 1.0625 12.75 C0.67835938 12.16863281 0.29421875 11.58726562 -0.1015625 10.98828125 C-4.4919189 5.05980679 -10.96468948 1.68263491 -17.9375 -0.25 C-27.42719293 -1.25168981 -34.9660089 -0.65440075 -42.9375 4.75 Z " fill="#F06A4A" transform="translate(303.9375,182.25)"/>
<path d="M0 0 C4.16602716 1.64703399 4.93665169 5.1082616 6.6875 9.0625 C7.95016771 12.05620903 9.13284397 15.0761128 10.296875 18.109375 C10.79263031 19.38630219 10.79263031 19.38630219 11.29840088 20.68902588 C12.34841918 23.39545283 13.39321528 26.10385621 14.4375 28.8125 C15.46392838 31.46613356 16.49149918 34.11931863 17.5201416 36.77209473 C18.20400438 38.53699893 18.88621829 40.30254293 19.56677246 42.06872559 C21.32351983 46.6138413 23.11988371 51.13738611 24.98632812 55.63867188 C25.3577594 56.5411969 25.72919067 57.44372192 26.11187744 58.37359619 C26.81986854 60.0877195 27.53630302 61.79838894 28.26263428 63.50482178 C30.03479387 67.80950269 31.32305354 71.31667145 30.6875 76.0625 C30.0275 76.7225 29.3675 77.3825 28.6875 78.0625 C26.71484375 77.95703125 26.71484375 77.95703125 24.6875 77.0625 C20.20978997 70.68677556 17.59205001 62.03342002 14.6875 55.0625 C4.4575 55.0625 -5.7725 55.0625 -16.3125 55.0625 C-19.18967199 61.88129806 -19.18967199 61.88129806 -22.05615234 68.70458984 C-22.41660645 69.55230957 -22.77706055 70.4000293 -23.1484375 71.2734375 C-23.51501465 72.14274902 -23.8815918 73.01206055 -24.25927734 73.90771484 C-25.3125 76.0625 -25.3125 76.0625 -27.3125 78.0625 C-29.9375 77.6875 -29.9375 77.6875 -32.3125 77.0625 C-31.8598931 70.40458693 -30.5320465 65.47108434 -27.625 59.5 C-24.97097141 53.94590862 -22.62675065 48.33957706 -20.5 42.5625 C-17.54378796 34.54327511 -14.29027288 26.67011605 -10.93334961 18.8112793 C-9.97905734 16.57594388 -9.0312383 14.33793531 -8.08398438 12.09960938 C-7.47693293 10.67171746 -6.86952549 9.24397683 -6.26171875 7.81640625 C-5.97946945 7.14992569 -5.69722015 6.48344513 -5.40641785 5.79676819 C-2.95762996 0.07993594 -2.95762996 0.07993594 0 0 Z " fill="#F06949" transform="translate(194.3125,173.9375)"/>
<path d="M0 0 C1.15158348 0.00607269 1.15158348 0.00607269 2.32643127 0.01226807 C3.51010033 0.00939789 3.51010033 0.00939789 4.71768188 0.00646973 C6.38796812 0.00510774 8.05826494 0.00880517 9.72853088 0.01715088 C12.28549522 0.02783627 14.8417547 0.01726368 17.3986969 0.00445557 C19.02044324 0.00577744 20.64218915 0.0083404 22.26393127 0.01226807 C23.41247841 0.00619537 23.41247841 0.00619537 24.58422852 0 C28.37808004 0.03349507 30.12751786 0.12184662 33.36158752 2.27789307 C32.78813815 5.14513993 32.50013602 6.13934457 30.36158752 8.27789307 C27.28883362 8.50494385 27.28883362 8.50494385 23.38502502 8.47320557 C22.69977753 8.47037567 22.01453003 8.46754578 21.30851746 8.46463013 C19.11769725 8.45342588 16.92728437 8.42832165 14.73658752 8.40289307 C13.25221842 8.39286355 11.76784292 8.38373765 10.28346252 8.37554932 C6.64255397 8.35518629 3.00252721 8.31604028 -0.63841248 8.27789307 C-0.63841248 16.52789307 -0.63841248 24.77789307 -0.63841248 33.27789307 C1.6483844 33.25468994 3.93518127 33.23148682 6.29127502 33.20758057 C8.50204412 33.19199047 10.71280712 33.1798421 12.92359924 33.16802979 C14.46203851 33.15796189 16.0004586 33.1443066 17.53883362 33.12701416 C19.74802885 33.1027999 21.95697147 33.09141816 24.16627502 33.08258057 C24.85591339 33.072258 25.54555176 33.06193542 26.25608826 33.05130005 C27.95959659 33.05089828 29.66244695 33.15598281 31.36158752 33.27789307 C32.02158752 33.93789307 32.68158752 34.59789307 33.36158752 35.27789307 C32.82587324 38.81360735 32.82587324 38.81360735 31.36158752 40.27789307 C28.98617702 40.36627955 26.63925172 40.3932683 24.26393127 40.37554932 C22.96705383 40.37305176 21.67017639 40.3705542 20.33399963 40.36798096 C18.67247864 40.35887695 17.01095764 40.34977295 15.29908752 40.34039307 C10.03971252 40.31976807 4.78033752 40.29914307 -0.63841248 40.27789307 C-0.63841248 52.48789307 -0.63841248 64.69789307 -0.63841248 77.27789307 C-3.11341248 77.77289307 -3.11341248 77.77289307 -5.63841248 78.27789307 C-8.52521337 75.39109218 -7.89227015 73.33135074 -7.89720154 69.28961182 C-7.90070618 68.57076813 -7.90421082 67.85192444 -7.90782166 67.11129761 C-7.91664212 64.72923191 -7.91078883 62.34746192 -7.90403748 59.96539307 C-7.90538404 58.31394392 -7.9073245 56.66249515 -7.90983582 55.01104736 C-7.9127875 51.54754874 -7.90848804 48.08415317 -7.89915466 44.6206665 C-7.88776006 40.17493995 -7.8943193 35.72945487 -7.90629959 31.28373718 C-7.91351702 27.87288586 -7.91123081 24.46209204 -7.90604401 21.05123901 C-7.90470718 19.4117327 -7.90635637 17.77222122 -7.91100311 16.13272095 C-7.91606648 13.84373081 -7.9083611 11.55513499 -7.89720154 9.26617432 C-7.89561035 7.9620459 -7.89401917 6.65791748 -7.89237976 5.31427002 C-7.43537647 -0.14956075 -4.88290694 0.04330124 0 0 Z " fill="#F16B45" transform="translate(125.63841247558594,173.72210693359375)"/>
<path d="M0 0 C0.66 0 1.32 0 2 0 C3.71111852 4.39573909 5.42005899 8.79231609 7.12695312 13.18969727 C7.7083802 14.68667686 8.29041028 16.18342239 8.87304688 17.67993164 C9.70860498 19.82637811 10.54201727 21.97364676 11.375 24.12109375 C11.63748535 24.79401962 11.8999707 25.4669455 12.17041016 26.16026306 C14 30.88612829 14 30.88612829 14 32 C5.42 32 -3.16 32 -12 32 C-11.15876008 27.79380038 -10.11435282 24.530212 -8.49609375 20.60546875 C-8.00302734 19.40341797 -7.50996094 18.20136719 -7.00195312 16.96289062 C-6.48056595 15.70438681 -5.95908034 14.44592377 -5.4375 13.1875 C-4.91169842 11.90967423 -4.38630353 10.63168104 -3.86132812 9.35351562 C-2.57820948 6.234007 -1.29096615 3.11626734 0 0 Z " fill="#FDF7F6" transform="translate(193,189)"/>
</svg>
