<svg width="165" height="48" viewBox="0 0 165 48" fill="none" xmlns="http://www.w3.org/2000/svg">
<path d="M158.378 47.579H6.09145C2.74268 47.579 0 44.9012 0 41.6317V5.94762C0 2.67807 2.74268 0.000278687 6.09145 0.000278687H158.378C161.727 0.000278687 164.469 2.67807 164.469 5.94762V41.6317C164.469 44.9012 161.727 47.579 158.378 47.579Z" fill="#1B1B34"/>
<path d="M158.378 0.953337C161.198 0.953337 163.493 3.194 163.493 5.94762V41.6317C163.493 44.3853 161.198 46.6259 158.378 46.6259H6.09145C3.27111 46.6259 0.976155 44.3853 0.976155 41.6317V5.94762C0.976155 3.194 3.27111 0.953337 6.09145 0.953337H158.378ZM158.378 0.000278687H6.09145C2.74268 0.000278687 0 2.67807 0 5.94762V41.6317C0 44.9012 2.74268 47.579 6.09145 47.579H158.378C161.727 47.579 164.469 44.9012 164.469 41.6317V5.94762C164.469 2.67807 161.727 0.000278687 158.378 0.000278687Z" fill="#A6A6A6"/>
<path d="M57.7688 12.1843C57.7688 13.1775 57.4642 13.973 56.8642 14.5662C56.1744 15.2695 55.2759 15.6234 54.1749 15.6234C53.1226 15.6234 52.2241 15.2636 51.487 14.5544C50.7484 13.8347 50.3799 12.9515 50.3799 11.8944C50.3799 10.8373 50.7484 9.95408 51.487 9.2404C52.2241 8.52523 53.1226 8.16542 54.1749 8.16542C54.6987 8.16542 55.1982 8.27099 55.6749 8.46725C56.15 8.665 56.5368 8.93263 56.817 9.2627L56.1805 9.89015C55.6916 9.32664 55.0261 9.0486 54.1749 9.0486C53.4073 9.0486 52.7418 9.31028 52.1769 9.83811C51.618 10.3674 51.3378 11.0529 51.3378 11.8944C51.3378 12.736 51.618 13.4273 52.1769 13.9566C52.7418 14.4785 53.4073 14.7462 54.1749 14.7462C54.9896 14.7462 55.6749 14.4785 56.2155 13.9507C56.5719 13.6013 56.7744 13.1196 56.8277 12.504H54.1749V11.6446H57.714C57.7566 11.8305 57.7688 12.0104 57.7688 12.1843Z" fill="white" stroke="white" stroke-width="0.129027" stroke-miterlimit="10"/>
<path d="M63.3837 9.20523H60.0593V11.4652H63.0563V12.3246H60.0593V14.5846H63.3837V15.4603H59.1182V8.32948H63.3837V9.20523Z" fill="white" stroke="white" stroke-width="0.129027" stroke-miterlimit="10"/>
<path d="M67.3465 15.4603H66.4053V9.20523H64.3662V8.32948H69.3871V9.20523H67.3465V15.4603Z" fill="white" stroke="white" stroke-width="0.129027" stroke-miterlimit="10"/>
<path d="M73.0205 15.4605V8.3296H73.9601V15.4605H73.0205Z" fill="white" stroke="white" stroke-width="0.129027" stroke-miterlimit="10"/>
<path d="M78.1248 15.4603H77.1913V9.20523H75.1445V8.32948H80.1715V9.20523H78.1248V15.4603Z" fill="white" stroke="white" stroke-width="0.129027" stroke-miterlimit="10"/>
<path d="M89.6764 14.5425C88.9561 15.2636 88.0637 15.6234 86.9992 15.6234C85.9286 15.6234 85.0362 15.2636 84.3159 14.5425C83.5971 13.8228 83.2393 12.9396 83.2393 11.8944C83.2393 10.8492 83.5971 9.96598 84.3159 9.24635C85.0362 8.52523 85.9286 8.16542 86.9992 8.16542C88.0576 8.16542 88.95 8.52523 89.6703 9.2523C90.3952 9.97787 90.7531 10.8551 90.7531 11.8944C90.7531 12.9396 90.3952 13.8228 89.6764 14.5425ZM85.0119 13.9448C85.554 14.4785 86.2134 14.7462 86.9992 14.7462C87.7789 14.7462 88.4444 14.4785 88.9805 13.9448C89.5211 13.411 89.7952 12.7255 89.7952 11.8944C89.7952 11.0633 89.5211 10.3778 88.9805 9.84406C88.4444 9.31028 87.7789 9.04265 86.9992 9.04265C86.2134 9.04265 85.554 9.31028 85.0119 9.84406C84.4713 10.3778 84.1971 11.0633 84.1971 11.8944C84.1971 12.7255 84.4713 13.411 85.0119 13.9448Z" fill="white" stroke="white" stroke-width="0.129027" stroke-miterlimit="10"/>
<path d="M92.0742 15.4603V8.32948H93.2164L96.7677 13.8754H96.8088L96.7677 12.5045V8.32948H97.7073V15.4603H96.7266L93.0077 9.64087H92.9666L93.0077 11.0177V15.4603H92.0742Z" fill="white" stroke="white" stroke-width="0.129027" stroke-miterlimit="10"/>
<path d="M83.0086 25.8741C80.1471 25.8741 77.8096 28.0003 77.8096 30.9338C77.8096 33.8436 80.1471 35.992 83.0086 35.992C85.8762 35.992 88.2138 33.8436 88.2138 30.9338C88.2138 28.0003 85.8762 25.8741 83.0086 25.8741ZM83.0086 33.9997C81.4385 33.9997 80.0878 32.7344 80.0878 30.9338C80.0878 29.1095 81.4385 27.8665 83.0086 27.8665C84.5787 27.8665 85.9356 29.1095 85.9356 30.9338C85.9356 32.7344 84.5787 33.9997 83.0086 33.9997ZM71.6648 25.8741C68.7972 25.8741 66.4657 28.0003 66.4657 30.9338C66.4657 33.8436 68.7972 35.992 71.6648 35.992C74.5308 35.992 76.8639 33.8436 76.8639 30.9338C76.8639 28.0003 74.5308 25.8741 71.6648 25.8741ZM71.6648 33.9997C70.0932 33.9997 68.7379 32.7344 68.7379 30.9338C68.7379 29.1095 70.0932 27.8665 71.6648 27.8665C73.2349 27.8665 74.5857 29.1095 74.5857 30.9338C74.5857 32.7344 73.2349 33.9997 71.6648 33.9997ZM58.1661 27.4249V29.5749H63.4246C63.2708 30.7762 62.8596 31.6594 62.2291 32.275C61.4616 33.0184 60.2662 33.8436 58.1661 33.8436C54.9301 33.8436 52.396 31.2936 52.396 28.1341C52.396 24.9746 54.9301 22.4247 58.1661 22.4247C59.9159 22.4247 61.189 23.0923 62.1286 23.9576L63.6804 22.4425C62.3662 21.2174 60.6179 20.2762 58.1661 20.2762C53.7285 20.2762 49.999 23.8015 49.999 28.1341C49.999 32.4668 53.7285 35.992 58.1661 35.992C60.5646 35.992 62.3662 35.2248 63.7825 33.7856C65.2337 32.3686 65.686 30.3763 65.686 28.7675C65.686 28.2679 65.6434 27.8085 65.5673 27.4249H58.1661ZM113.364 29.0916C112.936 27.9602 111.616 25.8741 108.926 25.8741C106.261 25.8741 104.042 27.9245 104.042 30.9338C104.042 33.7677 106.238 35.992 109.182 35.992C111.562 35.992 112.936 34.5751 113.501 33.7499L111.734 32.6006C111.145 33.4421 110.342 33.9997 109.182 33.9997C108.029 33.9997 107.202 33.4837 106.672 32.4668L113.603 29.667L113.364 29.0916ZM106.298 30.7762C106.238 28.8255 107.85 27.8263 109.004 27.8263C109.908 27.8263 110.676 28.2679 110.932 28.8998L106.298 30.7762ZM100.665 35.6843H102.943V20.8159H100.665V35.6843ZM96.9337 27.0011H96.8575C96.3458 26.4094 95.3697 25.8741 94.1331 25.8741C91.5382 25.8741 89.1655 28.0984 89.1655 30.9502C89.1655 33.7856 91.5382 35.992 94.1331 35.992C95.3697 35.992 96.3458 35.4523 96.8575 34.8427H96.9337V35.5683C96.9337 37.5027 95.8753 38.542 94.1682 38.542C92.7763 38.542 91.9128 37.5606 91.5564 36.7355L89.5752 37.5428C90.1463 38.8839 91.6585 40.5343 94.1682 40.5343C96.8393 40.5343 99.0931 38.9999 99.0931 35.2665V26.1819H96.9337V27.0011ZM94.3281 33.9997C92.758 33.9997 91.4437 32.7165 91.4437 30.9502C91.4437 29.1675 92.758 27.8665 94.3281 27.8665C95.8753 27.8665 97.0951 29.1675 97.0951 30.9502C97.0951 32.7165 95.8753 33.9997 94.3281 33.9997ZM124.03 20.8159H118.581V35.6843H120.853V30.0506H124.03C126.553 30.0506 129.028 28.2679 129.028 25.4325C129.028 22.5986 126.547 20.8159 124.03 20.8159ZM124.089 27.9825H120.853V22.8841H124.089C125.786 22.8841 126.754 24.2594 126.754 25.4325C126.754 26.5833 125.786 27.9825 124.089 27.9825ZM138.135 25.8459C136.493 25.8459 134.786 26.5536 134.084 28.1222L136.1 28.9474C136.534 28.1222 137.332 27.8546 138.176 27.8546C139.355 27.8546 140.55 28.546 140.568 29.7667V29.9228C140.157 29.6908 139.277 29.3474 138.194 29.3474C136.023 29.3474 133.81 30.5145 133.81 32.6928C133.81 34.6851 135.589 35.9682 137.588 35.9682C139.117 35.9682 139.961 35.2947 140.491 34.5111H140.568V35.6605H142.763V29.957C142.763 27.3208 140.746 25.8459 138.135 25.8459ZM137.861 33.9937C137.117 33.9937 136.082 33.6339 136.082 32.7344C136.082 31.5836 137.373 31.142 138.491 31.142C139.492 31.142 139.961 31.3576 140.568 31.6416C140.39 33.0184 139.176 33.9937 137.861 33.9937ZM150.758 26.1715L148.146 32.6169H148.068L145.368 26.1715H142.918L146.975 35.1787L144.66 40.1909H147.034L153.286 26.1715H150.758ZM130.277 35.6843H132.555V20.8159H130.277V35.6843Z" fill="white"/>
<path d="M12.7134 8.96687C12.3555 9.33263 12.1484 9.90209 12.1484 10.6396V36.9447C12.1484 37.6821 12.3555 38.2516 12.7134 38.6174L12.8017 38.6976L27.8994 23.9631V23.6152L12.8017 8.88064L12.7134 8.96687Z" fill="url(#paint0_linear_14_17653)"/>
<path d="M32.9264 28.8776L27.8994 23.9636V23.6157L32.9325 18.7017L33.0452 18.7656L39.0057 22.0768C40.7067 23.0165 40.7067 24.5628 39.0057 25.5084L33.0452 28.8136L32.9264 28.8776Z" fill="url(#paint1_linear_14_17653)"/>
<path d="M33.0446 28.8136L27.8989 23.7896L12.7129 38.6178C13.2779 39.1977 14.1992 39.2676 15.2469 38.6877L33.0446 28.8136Z" fill="url(#paint2_linear_14_17653)"/>
<path d="M33.0446 18.7657L15.2469 8.8916C14.1992 8.31768 13.2779 8.38756 12.7129 8.96742L27.8989 23.7897L33.0446 18.7657Z" fill="url(#paint3_linear_14_17653)"/>
<defs>
<linearGradient id="paint0_linear_14_17653" x1="26.5589" y1="37.2186" x2="6.6025" y2="16.7786" gradientUnits="userSpaceOnUse">
<stop stop-color="#00A0FF"/>
<stop offset="0.0066" stop-color="#00A1FF"/>
<stop offset="0.2601" stop-color="#00BEFF"/>
<stop offset="0.5122" stop-color="#00D2FF"/>
<stop offset="0.7604" stop-color="#00DFFF"/>
<stop offset="1" stop-color="#00E3FF"/>
</linearGradient>
<linearGradient id="paint1_linear_14_17653" x1="41.2207" y1="23.788" x2="11.7418" y2="23.788" gradientUnits="userSpaceOnUse">
<stop stop-color="#FFE000"/>
<stop offset="0.4087" stop-color="#FFBD00"/>
<stop offset="0.7754" stop-color="#FFA500"/>
<stop offset="1" stop-color="#FF9C00"/>
</linearGradient>
<linearGradient id="paint2_linear_14_17653" x1="30.2465" y1="21.0585" x2="3.184" y2="-6.6598" gradientUnits="userSpaceOnUse">
<stop stop-color="#FF3A44"/>
<stop offset="1" stop-color="#C31162"/>
</linearGradient>
<linearGradient id="paint3_linear_14_17653" x1="8.89026" y1="47.3695" x2="20.9749" y2="34.9921" gradientUnits="userSpaceOnUse">
<stop stop-color="#32A071"/>
<stop offset="0.0685" stop-color="#2DA771"/>
<stop offset="0.4762" stop-color="#15CF74"/>
<stop offset="0.8009" stop-color="#06E775"/>
<stop offset="1" stop-color="#00F076"/>
</linearGradient>
</defs>
</svg>
