<svg xmlns="http://www.w3.org/2000/svg" xmlns:xlink="http://www.w3.org/1999/xlink" width="66.002" height="41.387" viewBox="0 0 66.002 41.387">
  <defs>
    <linearGradient id="linear-gradient" x1="0.015" y1="0.477" x2="0.988" y2="0.463" gradientUnits="objectBoundingBox">
      <stop offset="0" stop-color="#19b0dc"/>
      <stop offset="1" stop-color="#020b50"/>
    </linearGradient>
  </defs>
  <g id="Check_Complaint_Status" data-name="Check Complaint Status" transform="translate(1.002 1)">
    <rect id="Rectangle_3300" data-name="Rectangle 3300" width="30" height="30" rx="2" transform="translate(34 10)" fill="url(#linear-gradient)"/>
    <path id="Path_283" data-name="Path 283" d="M1890,1252.564c0-4.257-2.8-6.564-6.4-6.564h-51.2c-6.454,0-6.4,6.564-6.4,6.564v26.258s-.157,6.565,6.4,6.565,25.6-.026,25.6-.026" transform="translate(-1826 -1246)" fill="none" stroke="#020b50" stroke-linecap="round" stroke-width="2"/>
    <g id="Path_1912" data-name="Path 1912" transform="translate(4 4)" fill="#fff">
      <path d="M 28.0167064666748 26.73470687866211 C 26.38986015319824 25.7720947265625 25.11725997924805 24.69900894165039 24.1294002532959 23.86602401733398 C 22.93173027038574 22.85613441467285 22.14051055908203 22.1889533996582 21.36701965332031 22.1889533996582 L 4.069910049438477 22.1889533996582 C 2.101449966430664 22.1889533996582 0.5000000596046448 20.56266403198242 0.5000000596046448 18.56368446350098 L 0.5000000596046448 4.125264167785645 C 0.5000000596046448 2.12628436088562 2.101449966430664 0.5000042915344238 4.069910049438477 0.5000042915344238 L 21.36701965332031 0.5000042915344238 C 23.33547973632812 0.5000042915344238 24.93692970275879 2.12628436088562 24.93692970275879 4.125264167785645 L 24.93692970275879 18.56368446350098 C 24.93692970275879 20.17432594299316 25.97203254699707 22.91911506652832 28.0167064666748 26.73470687866211 Z" stroke="none"/>
      <path d="M 4.069910049438477 1.000003814697266 C 2.377161026000977 1.000003814697266 1 2.401994705200195 1 4.125265121459961 L 1 18.56368446350098 C 1 20.28695487976074 2.377161026000977 21.68894386291504 4.069910049438477 21.68894386291504 L 21.36701965332031 21.68894386291504 C 22.32316970825195 21.68894386291504 23.16995048522949 22.40296363830566 24.45170974731445 23.48377418518066 C 25.07712936401367 24.01113891601562 25.81863212585449 24.63638114929199 26.69187355041504 25.26630020141602 C 25.17801094055176 22.22813415527344 24.43692970275879 20.02041244506836 24.43692970275879 18.56368446350098 L 24.43692970275879 4.125265121459961 C 24.43692970275879 2.401994705200195 23.05977058410645 1.000003814697266 21.36701965332031 1.000003814697266 L 4.069910049438477 1.000003814697266 M 4.069910049438477 3.814697265625e-06 L 21.36701965332031 3.814697265625e-06 C 23.61476898193359 3.814697265625e-06 25.43692970275879 1.846944808959961 25.43692970275879 4.125265121459961 L 25.43692970275879 18.56368446350098 C 25.43692970275879 19.51830291748047 25.81055068969727 21.82678413391113 29.26416015625 27.96630477905273 C 24.86865043640137 25.87329483032227 22.67296981811523 22.68894386291504 21.36701965332031 22.68894386291504 L 4.069910049438477 22.68894386291504 C 1.822160720825195 22.68894386291504 0 20.84200477600098 0 18.56368446350098 L 0 4.125265121459961 C 0 1.846944808959961 1.822160720825195 3.814697265625e-06 4.069910049438477 3.814697265625e-06 Z" stroke="none" fill="#020b50"/>
    </g>
    <g id="Group_7910" data-name="Group 7910" transform="translate(-784 -1222)">
      <rect id="Rectangle_3648" data-name="Rectangle 3648" width="4" height="12" rx="2" transform="translate(799 1229)" fill="#020b50"/>
      <rect id="Rectangle_3649" data-name="Rectangle 3649" width="4" height="4" rx="2" transform="translate(799 1242)" fill="#020b50"/>
    </g>
    <path id="Icon_open-question-mark" data-name="Icon open-question-mark" d="M6.958,0a7.279,7.279,0,0,0-5.3,1.859A6.147,6.147,0,0,0,0,5.465l2.817.366A3.414,3.414,0,0,1,3.69,3.887a4.183,4.183,0,0,1,3.268-1.07,4.97,4.97,0,0,1,3.437.958,2.355,2.355,0,0,1,.789,1.859c0,2.338-.958,2.986-2.366,4.225A8.029,8.029,0,0,0,5.549,16.2v.7H8.366v-.7c0-2.338.873-2.986,2.282-4.225S14,8.93,14,5.634a5.412,5.412,0,0,0-1.662-3.972A7.786,7.786,0,0,0,6.958,0ZM5.549,19.718v2.817H8.366V19.718Z" transform="translate(42.068 12.842)" fill="#fff"/>
  </g>
</svg>
