<svg xmlns="http://www.w3.org/2000/svg" width="40" height="40" viewBox="0 0 40 40" fill="none">
  <path d="M22.625 25.8333C23.086 25.8333 23.486 25.6639 23.8249 25.3249C24.1639 24.9859 24.3333 24.586 24.3333 24.125C24.3333 23.664 24.1639 23.2641 23.8249 22.9251C23.486 22.5861 23.086 22.4167 22.625 22.4167C22.164 22.4167 21.7641 22.5861 21.4251 22.9251C21.0861 23.2641 20.9167 23.664 20.9167 24.125C20.9167 24.586 21.0861 24.9859 21.4251 25.3249C21.7641 25.6639 22.164 25.8333 22.625 25.8333ZM21.5833 20.5833H23.5417C23.5972 19.7778 23.7153 19.1806 23.8958 18.7917C24.0764 18.4028 24.5278 17.8611 25.25 17.1667C26 16.4444 26.5208 15.814 26.8125 15.2752C27.1042 14.7365 27.25 14.1031 27.25 13.375C27.25 12.1005 26.8125 11.0597 25.9375 10.2525C25.0625 9.44527 23.9167 9.04167 22.5 9.04167C21.4445 9.04167 20.5 9.32639 19.6667 9.89584C18.8333 10.4653 18.2222 11.2639 17.8333 12.2917L19.7083 13.0833C20.0139 12.3889 20.3958 11.8611 20.8542 11.5C21.3125 11.1389 21.8611 10.9583 22.5 10.9583C23.3272 10.9583 23.9992 11.1944 24.5162 11.6667C25.0332 12.1389 25.2917 12.7361 25.2917 13.4583C25.2917 14.0139 25.1667 14.5 24.9167 14.9167C24.6667 15.3333 24.2222 15.7778 23.5833 16.25C22.6945 17.0556 22.1389 17.7014 21.9167 18.1875C21.6945 18.6736 21.5833 19.4722 21.5833 20.5833ZM10.8333 31.6667C10.1667 31.6667 9.58334 31.4167 9.08334 30.9167C8.58334 30.4167 8.33334 29.8333 8.33334 29.1667V5.83334C8.33334 5.16667 8.58334 4.58334 9.08334 4.08334C9.58334 3.58334 10.1667 3.33334 10.8333 3.33334H34.1667C34.8333 3.33334 35.4167 3.58334 35.9167 4.08334C36.4167 4.58334 36.6667 5.16667 36.6667 5.83334V29.1667C36.6667 29.8333 36.4167 30.4167 35.9167 30.9167C35.4167 31.4167 34.8333 31.6667 34.1667 31.6667H10.8333ZM10.8333 29.1667H34.1667V5.83334H10.8333V29.1667ZM5.83334 36.6667C5.16668 36.6667 4.58334 36.4167 4.08334 35.9167C3.58334 35.4167 3.33334 34.8333 3.33334 34.1667V8.33334H5.83334V34.1667H31.6667V36.6667H5.83334Z" fill="#666666"/>
</svg>