<svg xmlns="http://www.w3.org/2000/svg" xmlns:xlink="http://www.w3.org/1999/xlink" width="66.426" height="42.066" viewBox="0 0 66.426 42.066">
  <defs>
    <linearGradient id="linear-gradient" x1="0.5" y1="1" x2="0.5" gradientUnits="objectBoundingBox">
      <stop offset="0" stop-color="#04185b"/>
      <stop offset="1" stop-color="#18a5d4"/>
    </linearGradient>
    <linearGradient id="linear-gradient-2" y1="0.5" x2="1" y2="0.5" gradientUnits="objectBoundingBox">
      <stop offset="0" stop-color="#19b0dc"/>
      <stop offset="1" stop-color="#020b50"/>
    </linearGradient>
    <clipPath id="clip-path">
      <path id="Path_72" data-name="Path 72" d="M1.453,16.7A1.453,1.453,0,0,1,0,15.251V8.715A1.453,1.453,0,0,1,1.453,7.263h0V5.81h0a5.81,5.81,0,0,1,11.62,0H10.894a3.631,3.631,0,0,0-7.263,0h0V7.263h9.441a1.453,1.453,0,0,1,1.453,1.453v6.536A1.453,1.453,0,0,1,13.073,16.7Z" fill="#fff"/>
    </clipPath>
  </defs>
  <g id="AadhaarLockUnlock" transform="translate(-1299.993 -708.953)">
    <path id="Path_74" data-name="Path 74" d="M25.48,53.049a4.768,4.768,0,0,0-.082-6.6,4.525,4.525,0,0,0-6.457,0,4.768,4.768,0,0,0-.082,6.6,7.183,7.183,0,0,0-3.69,6.3,1.125,1.125,0,1,0,2.25,0,4.75,4.75,0,1,1,9.5,0,1.125,1.125,0,1,0,2.249,0,7.183,7.183,0,0,0-3.689-6.3ZM19.828,49.8a2.345,2.345,0,1,1,2.345,2.4,2.371,2.371,0,0,1-2.345-2.4Z" transform="translate(1296.83 676.95)" fill="url(#linear-gradient)"/>
    <g id="Group_44" data-name="Group 44" transform="translate(692 385.548)">
      <line id="Line_9" data-name="Line 9" x2="8.883" transform="translate(637.5 338.5)" fill="none" stroke="#2175af" stroke-linecap="round" stroke-width="1"/>
      <line id="Line_10" data-name="Line 10" x2="8.883" transform="translate(637.5 342.5)" fill="none" stroke="#2175af" stroke-linecap="round" stroke-width="1"/>
      <line id="Line_11" data-name="Line 11" x2="8.883" transform="translate(637.5 350.5)" fill="none" stroke="#2175af" stroke-linecap="round" stroke-width="1"/>
      <line id="Line_12" data-name="Line 12" x2="8.883" transform="translate(637.5 346.5)" fill="none" stroke="#2175af" stroke-linecap="round" stroke-width="1"/>
    </g>
    <path id="Path_75" data-name="Path 75" d="M1867.88,1256.07V1250a3.847,3.847,0,0,0-4.188-4h-33.506a3.95,3.95,0,0,0-4.188,4v16a3.9,3.9,0,0,0,4.188,4H1858" transform="translate(-518 -527.952)" fill="none" stroke="#2072a0" stroke-linecap="round" stroke-width="2"/>
    <rect id="Rectangle_16" data-name="Rectangle 16" width="26" height="31" rx="3" transform="translate(1340.068 720)" fill="url(#linear-gradient-2)"/>
    <path id="Path_49" data-name="Path 49" d="M772,531.24s1.033-6.773-6.434-7.04-49.534-.038-52.533,0c-2.3.2-5.353.884-5.067,7.04-.133,6.16.023,26.245.023,26.245s-.756,6.435,5.067,6.533H742.99" transform="translate(593.087 186)" fill="none" stroke="#020b50" stroke-linecap="round" stroke-width="2"/>
    <g id="Group_43" data-name="Group 43" transform="translate(1344.306 727.148)" clip-path="url(#clip-path)">
      <g id="Rectangle_28" data-name="Rectangle 28" transform="translate(-2.905 -2.179)" fill="#fff" stroke="#707070" stroke-width="1">
        <rect width="19.609" height="21.788" stroke="none"/>
        <rect x="0.5" y="0.5" width="18.609" height="20.788" fill="none"/>
      </g>
    </g>
    <path id="Path_73" data-name="Path 73" d="M0,0A6.5,6.5,0,0,1,6.5,6.5" transform="translate(1359.701 727.97) rotate(45)" fill="none" stroke="#fff" stroke-width="3" stroke-dasharray="1.5 2"/>
  </g>
</svg>
