<svg xmlns="http://www.w3.org/2000/svg" xmlns:xlink="http://www.w3.org/1999/xlink" width="66.002" height="41.27" viewBox="0 0 66.002 41.27"><defs><style>.a{fill:#fff;}.b,.d,.e,.i{fill:none;}.b,.c,.e{stroke:#020b50;}.b,.d,.e{stroke-linecap:round;}.b,.d{stroke-width:3px;}.c{fill:#2072A0;}.d{stroke:#19b0dc;}.e{stroke-width:2px;}.f{clip-path:url(#a);}.g{fill:url(#b);}.h{stroke:none;}</style><clipPath id="a"><path class="a" d="M6.514,17.345.586,11.417a2,2,0,0,1,0-2.829L.677,8.5a2,2,0,0,1,2.829,0L8,12.988,20.4.586a2,2,0,0,1,2.829,0l.091.09a2,2,0,0,1,0,2.829L9.479,17.345a2,2,0,0,1-1.472.584l-.078,0A1.994,1.994,0,0,1,6.514,17.345Z"/></clipPath><linearGradient id="b" y1="0.5" x2="1" y2="0.5" gradientUnits="objectBoundingBox"><stop offset="0" stop-color="#19b0dc"/><stop offset="1" stop-color="#020b50"/></linearGradient></defs><g transform="translate(-151.952 -552.5)"><g transform="translate(161 563.044)"><g transform="translate(0 1.199)"><path class="b" d="M1736.336,1144.332c6.877-7.495,20.712-7.4,27.5,0" transform="translate(-1736.336 -1138.746)"/><path class="b" d="M1736.336,1143.043c5.158-5.766,15.534-5.694,20.627,0" transform="translate(-1732.899 -1133.589)"/><path class="b" d="M1736.336,1141.324a6.446,6.446,0,0,1,10.314,0" transform="translate(-1727.742 -1128.432)"/><g class="c" transform="translate(12.302 14.147)"><circle class="h" cx="1.845" cy="1.845" r="1.845"/><circle class="i" cx="1.845" cy="1.845" r="1.345"/></g></g><path class="d" d="M17.611,0,0,24.225" transform="translate(5.504 -1.665)"/></g><path class="e" d="M1890,1265.635v-13.09c0-4.244-2.8-6.545-6.4-6.545h-51.2c-6.454,0-6.4,6.545-6.4,6.545v26.18s-.157,6.545,6.4,6.545h24.162" transform="translate(-1673.046 -692.5)"/><g class="f" transform="translate(193.049 575.569)"><rect class="g" width="25.8" height="19.608" transform="translate(-1.005 -0.672)"/></g><g class="f" transform="translate(185.049 575.569)"><rect class="g" width="25.8" height="19.608" transform="translate(-1.005 -0.672)"/></g></g></svg>