<svg xmlns="http://www.w3.org/2000/svg" xmlns:xlink="http://www.w3.org/1999/xlink" width="66.098" height="42.066" viewBox="0 0 66.098 42.066">
  <defs>
    <linearGradient id="linear-gradient" x1="0.5" y1="1" x2="0.5" gradientUnits="objectBoundingBox">
      <stop offset="0" stop-color="#04185b"/>
      <stop offset="1" stop-color="#18a5d4"/>
    </linearGradient>
    <linearGradient id="linear-gradient-2" y1="0.5" x2="1" y2="0.5" gradientUnits="objectBoundingBox">
      <stop offset="0" stop-color="#19b0dc"/>
      <stop offset="1" stop-color="#020b50"/>
    </linearGradient>
    <clipPath id="clip-path">
      <path id="Path_82" data-name="Path 82" d="M-333.519-12237l3.728-1.9a1.557,1.557,0,0,1,1.309,0c.864.289,4.6,1.4,4.6,1.4s1.138.367.813,1.24-.916.881-1.617.667-1.72-.5-1.72-.5-.756-.129-.81.169.012.549.787.771,3.117.9,3.117.9a2.073,2.073,0,0,0,1.414-.09c.921-.314,6.1-1.682,6.1-1.682s.78-.3.987.1.059.99-.645,1.357-6.831,3.16-6.831,3.16a2.38,2.38,0,0,1-2.152,0c-1.24-.561-4.518-1.513-4.518-1.513s-.267-.168-.98.094a15.262,15.262,0,0,0-1.51.682Z" transform="translate(333.519 12238.999)" fill="#fff"/>
    </clipPath>
  </defs>
  <g id="OrderPVC" transform="translate(-1299.993 -882.406)">
    <path id="Path_80" data-name="Path 80" d="M25.48,53.049a4.768,4.768,0,0,0-.082-6.6,4.525,4.525,0,0,0-6.457,0,4.768,4.768,0,0,0-.082,6.6,7.183,7.183,0,0,0-3.69,6.3,1.125,1.125,0,1,0,2.25,0,4.75,4.75,0,1,1,9.5,0,1.125,1.125,0,1,0,2.249,0,7.183,7.183,0,0,0-3.689-6.3ZM19.828,49.8a2.345,2.345,0,1,1,2.345,2.4,2.371,2.371,0,0,1-2.345-2.4Z" transform="translate(1297.514 850.403)" fill="url(#linear-gradient)"/>
    <g id="Group_46" data-name="Group 46" transform="translate(692.684 559)">
      <line id="Line_9" data-name="Line 9" x2="8.883" transform="translate(637.5 338.5)" fill="none" stroke="#2175af" stroke-linecap="round" stroke-width="1"/>
      <line id="Line_10" data-name="Line 10" x2="8.883" transform="translate(637.5 342.5)" fill="none" stroke="#2175af" stroke-linecap="round" stroke-width="1"/>
      <line id="Line_11" data-name="Line 11" x2="8.883" transform="translate(637.5 350.5)" fill="none" stroke="#2175af" stroke-linecap="round" stroke-width="1"/>
      <line id="Line_12" data-name="Line 12" x2="8.883" transform="translate(637.5 346.5)" fill="none" stroke="#2175af" stroke-linecap="round" stroke-width="1"/>
    </g>
    <path id="Path_81" data-name="Path 81" d="M1867.88,1256.07V1250a3.847,3.847,0,0,0-4.188-4h-33.506a3.95,3.95,0,0,0-4.188,4v16a3.9,3.9,0,0,0,4.188,4H1858" transform="translate(-517.316 -354.499)" fill="none" stroke="#2072a0" stroke-linecap="round" stroke-width="2"/>
    <rect id="Rectangle_27" data-name="Rectangle 27" width="26" height="31" rx="3" transform="translate(1340.068 893.453)" fill="url(#linear-gradient-2)"/>
    <path id="Path_71" data-name="Path 71" d="M772,531.24s1.033-6.773-6.434-7.04-49.534-.038-52.533,0c-2.3.2-5.353.884-5.067,7.04-.133,6.16.023,26.245.023,26.245s-.756,6.435,5.067,6.533H742.99" transform="translate(593.087 359.453)" fill="none" stroke="#020b50" stroke-linecap="round" stroke-width="2"/>
    <g id="Group_47" data-name="Group 47" transform="translate(1343.668 907.659)" clip-path="url(#clip-path)">
      <rect id="Rectangle_29" data-name="Rectangle 29" width="22.091" height="9.401" transform="translate(-0.94 -0.785)" fill="#fff"/>
    </g>
    <path id="Path_83" data-name="Path 83" d="M0,0A6.5,6.5,0,0,1,6.5,6.5" transform="translate(1351.559 904.631) rotate(-15.009)" fill="none" stroke="#fff" stroke-width="3" stroke-dasharray="1 2"/>
  </g>
</svg>
