<svg xmlns="http://www.w3.org/2000/svg" width="26" height="26.001" viewBox="0 0 26 26.001">
  <path id="Union_5" data-name="Union 5" d="M-297.685,214.7a12.534,12.534,0,0,1-4.243-8.252h2.961a9.657,9.657,0,0,0,3.341,6.211A9.8,9.8,0,0,0-289,215.111a9.756,9.756,0,0,0,7.168-2.943A9.758,9.758,0,0,0-278.889,205a9.758,9.758,0,0,0-2.943-7.168A9.756,9.756,0,0,0-289,194.889a9.746,9.746,0,0,0-4.658,1.156,10.72,10.72,0,0,0-3.647,3.178h3.973v2.888H-302v-8.667h2.889v3.395a12.616,12.616,0,0,1,4.5-3.575A12.893,12.893,0,0,1-289,192a12.574,12.574,0,0,1,5.074,1.03,13.211,13.211,0,0,1,4.117,2.781,13.21,13.21,0,0,1,2.78,4.116A12.575,12.575,0,0,1-276,205a12.575,12.575,0,0,1-1.03,5.074,13.211,13.211,0,0,1-2.78,4.116,13.211,13.211,0,0,1-4.117,2.781A12.575,12.575,0,0,1-289,218,12.624,12.624,0,0,1-297.685,214.7Zm10.063-2.741-4.217-4.39v-1.254h2.195a2.076,2.076,0,0,0,1.434-.541,2.208,2.208,0,0,0,.729-1.34h-4.986v-1.254h4.8a2.264,2.264,0,0,0-.793-.9,2.069,2.069,0,0,0-1.183-.353h-2.822v-1.255h7.525v1.255h-2.038a3.738,3.738,0,0,1,.392.58,2.918,2.918,0,0,1,.266.675h1.38v1.254h-1.27a3.377,3.377,0,0,1-1.1,2.234,3.313,3.313,0,0,1-2.336.9h-.455l4.217,4.39Z" transform="translate(302 -192)" fill="#fff"/>
</svg>
