<svg xmlns="http://www.w3.org/2000/svg" xmlns:xlink="http://www.w3.org/1999/xlink" width="66.098" height="42.066" viewBox="0 0 66.098 42.066">
  <defs>
    <linearGradient id="linear-gradient" y1="0.5" x2="1" y2="0.5" gradientUnits="objectBoundingBox">
      <stop offset="0" stop-color="#19b0dc"/>
      <stop offset="1" stop-color="#020b50"/>
    </linearGradient>
    <linearGradient id="linear-gradient-2" x1="0.5" y1="1" x2="0.5" gradientUnits="objectBoundingBox">
      <stop offset="0" stop-color="#04175a"/>
      <stop offset="1" stop-color="#18a5d4"/>
    </linearGradient>
  </defs>
  <g id="RetrieveUid" transform="translate(-1300.925 -595.417)">
    <rect id="Rectangle_14" data-name="Rectangle 14" width="26" height="31" rx="3" transform="translate(1341 606.464)" fill="url(#linear-gradient)"/>
    <path id="Path_47" data-name="Path 47" d="M772,531.24s1.033-6.773-6.434-7.04-49.534-.038-52.533,0c-2.3.2-5.353.884-5.067,7.04-.133,6.16.023,26.245.023,26.245s-.756,6.435,5.067,6.533H742.99" transform="translate(594.019 72.464)" fill="none" stroke="#020b50" stroke-linecap="round" stroke-width="2"/>
    <text id="EID" transform="translate(1344.645 621.06)" fill="#fff" font-size="12" font-family="SegoeUI-Bold, Segoe UI" font-weight="700"><tspan x="0" y="0">EID</tspan></text>
    <text id="UID" transform="translate(1343.5 632.868)" fill="#fff" font-size="12" font-family="SegoeUI-Bold, Segoe UI" font-weight="700"><tspan x="0" y="0">UID</tspan></text>
    <path id="update_24dp_1F1F1F_FILL0_wght400_GRAD0_opsz24" d="M133.286-813.427a12.854,12.854,0,0,0,5.185-1.052,13.5,13.5,0,0,0,4.207-2.842,13.505,13.505,0,0,0,2.842-4.207,12.854,12.854,0,0,0,1.052-5.185,12.854,12.854,0,0,0-1.052-5.185,13.506,13.506,0,0,0-2.842-4.207,13.506,13.506,0,0,0-4.207-2.842A12.854,12.854,0,0,0,133.286-840a13.184,13.184,0,0,0-5.739,1.292,12.89,12.89,0,0,0-4.595,3.654v-3.469H120v8.858h8.858v-2.953H124.8a10.971,10.971,0,0,1,3.728-3.248,9.964,9.964,0,0,1,4.761-1.181,9.97,9.97,0,0,1,7.326,3.008,9.97,9.97,0,0,1,3.008,7.326,9.97,9.97,0,0,1-3.008,7.326,9.97,9.97,0,0,1-7.326,3.008,10.021,10.021,0,0,1-6.772-2.51,9.87,9.87,0,0,1-3.414-6.348h-3.026a12.808,12.808,0,0,0,4.336,8.433A12.9,12.9,0,0,0,133.286-813.427Zm-4.133-7.086,5.61-5.61V-834.1H131.81v6.791l-4.724,4.724Z" transform="translate(1188.996 1443.223)" fill="url(#linear-gradient-2)"/>
  </g>
</svg>
