<svg xmlns="http://www.w3.org/2000/svg" width="26.013" height="26.013" viewBox="0 0 26.013 26.013">
  <path id="history_24dp_1F1F1F_FILL0_wght400_GRAD0_opsz24" d="M133.006-813.987a12.63,12.63,0,0,1-8.689-3.306,12.538,12.538,0,0,1-4.245-8.255h2.963a9.662,9.662,0,0,0,3.342,6.214,9.81,9.81,0,0,0,6.63,2.457,9.76,9.76,0,0,0,7.172-2.944,9.76,9.76,0,0,0,2.944-7.172,9.76,9.76,0,0,0-2.944-7.172,9.76,9.76,0,0,0-7.172-2.945,9.753,9.753,0,0,0-4.661,1.156,10.739,10.739,0,0,0-3.649,3.179h3.974v2.89H120v-8.671h2.89v3.4a12.619,12.619,0,0,1,4.5-3.577A12.907,12.907,0,0,1,133.006-840a12.583,12.583,0,0,1,5.076,1.03,13.22,13.22,0,0,1,4.119,2.782,13.222,13.222,0,0,1,2.782,4.119,12.583,12.583,0,0,1,1.03,5.076,12.583,12.583,0,0,1-1.03,5.076A13.221,13.221,0,0,1,142.2-817.8a13.22,13.22,0,0,1-4.119,2.782A12.581,12.581,0,0,1,133.006-813.987Zm4.046-6.937-5.492-5.492v-7.8h2.89v6.648l4.624,4.625Z" transform="translate(-120 840)" fill="#fff"/>
</svg>
