<svg xmlns="http://www.w3.org/2000/svg" xmlns:xlink="http://www.w3.org/1999/xlink" width="66.098" height="42.066" viewBox="0 0 66.098 42.066">
  <defs>
    <linearGradient id="linear-gradient" x1="0.5" y1="1" x2="0.5" gradientUnits="objectBoundingBox">
      <stop offset="0" stop-color="#04185b"/>
      <stop offset="1" stop-color="#18a5d4"/>
    </linearGradient>
    <linearGradient id="linear-gradient-2" y1="0.5" x2="1" y2="0.5" gradientUnits="objectBoundingBox">
      <stop offset="0" stop-color="#19b0dc"/>
      <stop offset="1" stop-color="#020b50"/>
    </linearGradient>
  </defs>
  <g id="GenerateVirtualId" transform="translate(-1299.993 -824.588)">
    <path id="Path_78" data-name="Path 78" d="M25.48,53.049a4.768,4.768,0,0,0-.082-6.6,4.525,4.525,0,0,0-6.457,0,4.768,4.768,0,0,0-.082,6.6,7.183,7.183,0,0,0-3.69,6.3,1.125,1.125,0,1,0,2.25,0,4.75,4.75,0,1,1,9.5,0,1.125,1.125,0,1,0,2.249,0,7.183,7.183,0,0,0-3.689-6.3ZM19.828,49.8a2.345,2.345,0,1,1,2.345,2.4,2.371,2.371,0,0,1-2.345-2.4Z" transform="translate(1297.514 792.585)" fill="url(#linear-gradient)"/>
    <path id="Path_79" data-name="Path 79" d="M1867.88,1256.07V1250a3.847,3.847,0,0,0-4.188-4h-33.506a3.95,3.95,0,0,0-4.188,4v16a3.9,3.9,0,0,0,4.188,4H1858" transform="translate(-517.316 -412.317)" fill="none" stroke="#2072a0" stroke-linecap="round" stroke-width="2"/>
    <rect id="Rectangle_26" data-name="Rectangle 26" width="26" height="31" rx="3" transform="translate(1340.068 835.635)" fill="url(#linear-gradient-2)"/>
    <path id="Path_70" data-name="Path 70" d="M772,531.24s1.033-6.773-6.434-7.04-49.534-.038-52.533,0c-2.3.2-5.353.884-5.067,7.04-.133,6.16.023,26.245.023,26.245s-.756,6.435,5.067,6.533H742.99" transform="translate(593.087 301.635)" fill="none" stroke="#020b50" stroke-linecap="round" stroke-width="2"/>
    <text id="_16" data-name="16" transform="translate(1342.068 857.635)" fill="#fff" font-size="19" font-family="Arial-BoldMT, Arial" font-weight="700"><tspan x="0" y="0">16</tspan></text>
  </g>
</svg>
