<svg xmlns="http://www.w3.org/2000/svg" width="40" height="40" viewBox="0 0 40 40" fill="none">
  <path d="M15.9583 27.0833L27.0833 20L15.9583 12.9167V27.0833ZM20 36.6667C17.7222 36.6667 15.5694 36.2292 13.5416 35.3542C11.5139 34.4792 9.74303 33.2847 8.22915 31.7708C6.71526 30.2569 5.52081 28.4861 4.64581 26.4583C3.77081 24.4306 3.33331 22.2778 3.33331 20C3.33331 17.6944 3.77081 15.5278 4.64581 13.5C5.52081 11.4722 6.71526 9.70834 8.22915 8.20834C9.74303 6.70834 11.5139 5.52084 13.5416 4.64584C15.5694 3.77084 17.7222 3.33334 20 3.33334C22.3055 3.33334 24.4722 3.77084 26.5 4.64584C28.5278 5.52084 30.2916 6.70834 31.7916 8.20834C33.2916 9.70834 34.4791 11.4722 35.3541 13.5C36.2291 15.5278 36.6666 17.6944 36.6666 20C36.6666 22.2778 36.2291 24.4306 35.3541 26.4583C34.4791 28.4861 33.2916 30.2569 31.7916 31.7708C30.2916 33.2847 28.5278 34.4792 26.5 35.3542C24.4722 36.2292 22.3055 36.6667 20 36.6667ZM20 34.1667C23.9444 34.1667 27.2916 32.7847 30.0416 30.0208C32.7916 27.2569 34.1666 23.9167 34.1666 20C34.1666 16.0556 32.7916 12.7083 30.0416 9.95834C27.2916 7.20834 23.9444 5.83334 20 5.83334C16.0833 5.83334 12.743 7.20834 9.97915 9.95834C7.21526 12.7083 5.83331 16.0556 5.83331 20C5.83331 23.9167 7.21526 27.2569 9.97915 30.0208C12.743 32.7847 16.0833 34.1667 20 34.1667Z" fill="#666666"/>
</svg>